<?xml version="1.0" encoding="UTF-8"?>
<svg width="22px" height="21px" viewBox="0 0 22 21" version="1.1" xmlns="http://www.w3.org/2000/svg" xmlns:xlink="http://www.w3.org/1999/xlink">
    <!-- Generator: Sketch 64 (93537) - https://sketch.com -->
    <title>time-left</title>
    <desc>Created with Sketch.</desc>
    <g id="Symbols" stroke="none" stroke-width="1" fill="none" fill-rule="evenodd">
        <g id="Course-Card-GSAT" transform="translate(-121.000000, -274.000000)" fill="#DB5C5D" fill-rule="nonzero">
            <g id="Card-Footer" transform="translate(1.000000, 260.500000)">
                <g id="time-left" transform="translate(120.000000, 13.500000)">
                    <path d="M13.0737775,19.0278173 C12.9207899,19.075409 12.7648112,19.1176739 12.6099891,19.1532681 C12.205266,19.2472069 11.9376973,19.7330799 12.0125559,20.2387163 C12.0495266,20.4874773 12.1627118,20.6946703 12.3163774,20.8299282 C12.474749,20.9690691 12.6763129,21.031894 12.8817055,20.9842028 C13.0660802,20.9414898 13.2518907,20.8912597 13.4342315,20.8344583 C13.8338895,20.7103019 14.0773695,20.2049143 13.9776644,19.7062971 C13.8781985,19.2072319 13.4736748,18.9035613 13.0737775,19.0278173 Z" id="Path"></path>
                    <path d="M19.2591484,7.48353795 C19.3216983,7.64253609 19.4411163,7.77233625 19.5919524,7.86202441 C19.8156044,7.99488532 20.1082523,8.03958844 20.3875308,7.96170029 C20.8557484,7.83057113 21.1094339,7.40472352 20.9545392,7.01000701 C20.8839675,6.83006687 20.8056607,6.6495629 20.7222448,6.47381115 C20.5390832,6.08759226 20.0196797,5.89955723 19.5615369,6.05404478 C19.1038716,6.20845179 18.8808404,6.64666323 19.0641452,7.03300294 C19.1342394,7.18072462 19.199893,7.33235279 19.2591484,7.48353795 Z" id="Path"></path>
                    <path d="M15.8038228,18.1401459 C15.6677867,18.2385553 15.5273796,18.3338018 15.3859417,18.4230389 C15.0169247,18.6562754 14.8905377,19.1731278 15.1033132,19.5772929 C15.1610842,19.687224 15.2380297,19.7770937 15.3266449,19.8457724 C15.5645328,20.0291717 15.8876134,20.0566432 16.1565929,19.8868441 C16.3247515,19.7805729 16.4919617,19.6675241 16.6539761,19.5501377 C17.0091792,19.2929993 17.1069487,18.7687368 16.8721535,18.3793466 C16.6373995,17.9898209 16.1591495,17.8828267 15.8038228,18.1401459 Z" id="Path"></path>
                    <path d="M21.990534,10.7123861 C21.9688652,10.3031338 21.505993,9.98459742 20.9562858,10.0005758 C20.4072707,10.0167127 19.9792178,10.3615361 20.0007801,10.7706298 C20.0090324,10.9270434 20.011162,11.0857961 20.0063172,11.2420511 C19.9985973,11.4986961 20.1671564,11.7274682 20.4290992,11.8649694 C20.5851469,11.946804 20.774523,11.996325 20.9798713,11.9998141 C21.5294188,12.0088936 21.9848373,11.6842909 21.9970293,11.2748404 C22.0025131,11.0881354 22.0004367,10.8989722 21.990534,10.7123861 Z" id="Path"></path>
                    <path d="M18.6718167,16.1574433 C18.3084239,15.8965439 17.7943089,15.9673775 17.5221485,16.3144871 C17.4179205,16.4474155 17.3081607,16.5787055 17.1957667,16.7051219 C16.9020494,17.0353424 16.9435386,17.5313453 17.2886235,17.8126209 C17.3082924,17.8285857 17.3281809,17.8432482 17.3488158,17.8570284 C17.691881,18.0884768 18.1686777,18.0352886 18.4460627,17.7238059 C18.580277,17.57298 18.7111107,17.4161463 18.8356662,17.25738 C19.1078705,16.9102704 19.0341997,16.4179646 18.6718167,16.1574433 Z" id="Path"></path>
                    <path d="M20.3709901,13.0346448 C19.8981336,12.910368 19.394569,13.1310096 19.2464025,13.5273681 C19.1896885,13.6787927 19.1268329,13.8309413 19.0589872,13.9799528 C18.910005,14.3079791 19.0527496,14.6689047 19.3799827,14.862318 C19.4400074,14.8976705 19.5061257,14.9276337 19.5779538,14.9503976 C20.0409262,15.0984841 20.559365,14.9037838 20.7358405,14.5155495 C20.8164012,14.3383847 20.8911562,14.1573589 20.958762,13.9773385 C21.1067845,13.5808996 20.8437506,13.1589216 20.3709901,13.0346448 Z" id="Path"></path>
                    <path d="M9.28627045,19.3125053 C8.50209104,19.1759991 7.74985099,18.9435475 7.03653851,18.6193339 C7.02809639,18.6150596 7.02054538,18.6101941 7.01168115,18.6062835 C6.8435891,18.5295727 6.67577846,18.4474052 6.5131269,18.3615546 C6.51256409,18.360918 6.51153227,18.3605087 6.51064116,18.360145 C6.21221212,18.2008119 5.92095888,18.0245179 5.63800706,17.8313994 C1.51206022,15.0135149 0.520016982,9.46650677 3.42663988,5.46631124 C4.05867348,4.59680039 4.82352981,3.87138952 5.67623112,3.29644468 C5.68673687,3.28935109 5.69724262,3.28230297 5.70765457,3.2751639 C8.7124406,1.26785886 12.7924717,1.1325804 15.9830782,3.19527003 L15.2978123,4.1552242 C15.1073018,4.42241622 15.2245066,4.61712626 15.5580173,4.58802434 L18.5346629,4.32965384 C18.8685958,4.30055192 19.0682989,4.0204914 18.9784841,3.70782763 L18.1791558,0.915589194 C18.0896693,0.60256165 17.8605594,0.565092926 17.6698613,0.832239471 L16.9830008,1.79446723 C14.6415311,0.270572385 11.8331651,-0.31051114 9.04571685,0.158120741 C8.76496937,0.205229477 8.48816154,0.262887659 8.21515266,0.330003965 C8.21304213,0.330367739 8.21135371,0.330595098 8.20966528,0.330958872 C8.19911263,0.333459819 8.18841927,0.336779256 8.17814803,0.339553033 C5.77448805,0.938006768 3.67732403,2.29720292 2.18086395,4.23648222 C2.16824767,4.25098771 2.15525618,4.2651749 2.14334341,4.28095359 C2.09358178,4.34593273 2.04419536,4.41241243 1.99584076,4.47889213 C1.91676621,4.58784245 1.83881727,4.69952108 1.76424519,4.8111997 C1.75491195,4.82465934 1.74778305,4.83834634 1.73962233,4.85194239 C0.50472736,6.70723536 -0.0909113081,8.85213793 0.0112383784,11.0357824 C0.0114728818,11.042967 0.0110507756,11.050197 0.0112383784,11.0575634 C0.0211344224,11.2708714 0.0385814763,11.487135 0.0622663209,11.7000338 C0.0635326394,11.7137663 0.0666749851,11.7267712 0.0690669199,11.7405036 C0.0935490762,11.9545847 0.124269023,12.1691659 0.162774484,12.3837016 C0.554113778,14.5726208 1.61913448,16.5423207 3.215024,18.0749461 C3.21872915,18.0785384 3.22257501,18.082449 3.22632707,18.0861776 C3.22764028,18.0875873 3.22909421,18.0883148 3.23036052,18.0896335 C3.65912656,18.4996523 4.12550695,18.8788867 4.62767256,19.2217892 C5.94182968,20.1195835 7.40517788,20.7130353 8.97672595,20.986457 C9.45356519,21.0695339 9.90906461,20.761781 9.99461146,20.2996971 C10.0801114,19.8372948 9.76296899,19.3953094 9.28627045,19.3125053 Z" id="Path"></path>
                    <path d="M10.6624538,4 C10.2964565,4 10,4.31226056 10,4.6968753 L10,11.6396987 L16.0337256,14.9221651 C16.1308376,14.9750836 16.2348206,15 16.3371406,15 C16.5767915,15 16.8082587,14.8626606 16.9259398,14.6230306 C17.0937742,14.2810178 16.9667714,13.8608477 16.6417809,13.6842224 L11.3241636,10.7910685 L11.3241636,4.6968753 C11.3241198,4.31226056 11.0280135,4 10.6624538,4 Z" id="Path"></path>
                </g>
            </g>
        </g>
    </g>
</svg>