<?xml version="1.0" encoding="UTF-8"?>
<svg width="18px" height="15px" viewBox="0 0 18 15" version="1.1" xmlns="http://www.w3.org/2000/svg" xmlns:xlink="http://www.w3.org/1999/xlink">
    <!-- Generator: Sketch 64 (93537) - https://sketch.com -->
    <title>open-book (1) copy 3</title>
    <desc>Created with Sketch.</desc>
    <g id="Hifi---Company-Managers" stroke="none" stroke-width="1" fill="none" fill-rule="evenodd">
        <g id="06a-Company-Manager-&gt;-Manage-Delegate" transform="translate(-938.000000, -1661.000000)" fill="#000000" fill-rule="nonzero">
            <g id="open-book-(1)-copy-3" transform="translate(938.000000, 1661.000000)">
                <path d="M16.9089117,1.93651851 L15.6824833,1.9364596 L15.6824833,0.666909805 C15.6824833,0.376252356 15.4698215,0.129305452 15.1823452,0.0863018165 C15.1321546,0.078761453 13.9373605,-0.0947847254 12.4986238,0.167007269 C10.894706,0.4588429 9.61555399,1.17853525 8.74799983,2.26652723 C7.88038675,1.17853525 6.60123478,0.4588429 4.9973759,0.167007269 C3.55858029,-0.0947258163 2.36378613,0.078761453 2.3136545,0.0863018165 C2.02617814,0.129364361 1.81351633,0.376311265 1.81351633,0.666909805 L1.81351633,1.9364596 L0.587087988,1.9364596 C0.262911268,1.9364596 0,2.19937087 0,2.5236065 L0,13.5870281 C0,13.7771277 0.0920159982,13.9554455 0.247005813,14.0656055 C0.401995628,14.1757655 0.600695988,14.2040419 0.780191984,14.1414804 C0.824255984,14.126223 5.22376353,12.6247481 8.50435183,14.1211568 C8.65916492,14.1917888 8.83689364,14.1917888 8.99170673,14.1211568 C12.2631052,12.6289896 16.6720382,14.1263408 16.7158666,14.1414804 C16.7787815,14.1633946 16.8439349,14.174175 16.9088528,14.174175 C17.029204,14.174175 17.1483182,14.1371801 17.2490527,14.0656644 C17.4040426,13.9555045 17.4960586,13.7771866 17.4960586,13.587087 L17.4960586,2.5236654 C17.4960586,2.19942977 17.2331473,1.93651851 16.9089117,1.93651851 Z M1.17423489,12.8014754 L1.17423489,3.11069448 L1.81351633,3.11069448 L1.81351633,10.9294623 C1.81351633,11.1000631 1.88815414,11.262063 2.01722396,11.373578 C2.14629378,11.4850929 2.31795486,11.5351067 2.4866705,11.5101881 C2.5190705,11.5054754 5.06959844,11.1553198 6.93301077,12.4338238 C4.63761809,12.0413125 2.34028141,12.4953248 1.17423489,12.8014754 Z M8.16091184,11.9043489 C7.3401904,11.1628012 6.27116715,10.6613671 4.9973759,10.4296187 C4.38436791,10.3180449 3.81565956,10.2855271 3.36088139,10.2855271 C3.22586175,10.2855271 3.10085667,10.2884136 2.98781012,10.2929496 L2.98781012,1.20604579 L2.98775121,1.20604579 C4.11615483,1.15514834 6.86114168,1.27579416 8.16091184,3.47917084 L8.16091184,11.9043489 Z M9.33508781,3.47922975 C10.6302042,1.28527852 13.3794914,1.15915416 14.5082484,1.20751852 L14.5082484,10.2929496 C14.0144135,10.2730383 13.293543,10.284938 12.4986238,10.4296187 C11.2248325,10.6613671 10.1558093,11.1627423 9.33508781,11.9043489 L9.33508781,3.47922975 Z M10.5610449,12.4341772 C12.4246928,11.1549074 14.9765757,11.5054165 15.0083866,11.5101292 C15.1775146,11.535519 15.3490579,11.4857998 15.4785401,11.3743438 C15.6080222,11.26277 15.6824833,11.1004165 15.6824833,10.9294623 L15.6824833,3.11075339 L16.3217648,3.11075339 L16.3217648,12.8014754 C15.1553648,12.495207 12.8570856,12.0410179 10.5610449,12.4341772 Z" id="Shape"></path>
            </g>
        </g>
    </g>
</svg>