<?xml version="1.0" encoding="UTF-8"?>
<svg width="25px" height="22px" viewBox="0 0 25 22" version="1.1" xmlns="http://www.w3.org/2000/svg" xmlns:xlink="http://www.w3.org/1999/xlink">
    <title>Group</title>
    <defs>
        <filter id="filter-1">
            <feColorMatrix in="SourceGraphic" type="matrix" values="0 0 0 0 0.062745 0 0 0 0 0.505882 0 0 0 0 0.666667 0 0 0 1.000000 0"></feColorMatrix>
        </filter>
    </defs>
    <g id="Delegates-connected-to-Manager" stroke="none" stroke-width="1" fill="none" fill-rule="evenodd">
        <g id="08-Delegates---Training-Progress" transform="translate(-40.000000, -290.000000)">
            <g id="Group">
                <rect id="Rectangle" fill="#FFFFFF" x="0" y="0" width="272" height="2302"></rect>
                <rect id="Rectangle-Copy-2" fill-opacity="0.5" fill="#E7F8E6" x="0" y="268" width="274" height="72"></rect>
            </g>
            <g filter="url(#filter-1)" id="Group">
                <g transform="translate(40.000000, 290.000000)">
                    <path d="M0.55,0.0995995 C0.290727525,0.0995995 0,0.3777158 0,0.6495995 L0,20.4495995 C0,20.737571 0.262028525,20.9995995 0.55,20.9995995 L23.65,20.9995995 C23.9405983,20.9995995 24.2,20.708872 24.2,20.4495995 C24.2,20.190327 23.9405983,19.8995995 23.65,19.8995995 L21.45,19.8995995 L21.45,7.7995995 C21.4499711,7.51162803 21.1879715,7.24962838 20.9,7.2495995 L17.6,7.2495995 C17.300583,7.2495995 17.05,7.55175328 17.05,7.7995995 L17.05,19.8995995 L14.3,19.8995995 L14.3,10.5495995 C14.3,10.2043576 14.0419301,9.9995995 13.75,9.9995995 L10.45,9.9995995 C10.1620285,9.99962838 9.90002887,10.261628 9.9,10.5495995 L9.9,19.8995995 L7.15,19.8995995 L7.15,13.2995995 C7.15,12.9543576 6.8919301,12.7495995 6.6,12.7495995 L3.3,12.7495995 C3.01202852,12.7496284 2.75002888,13.011628 2.75,13.2995995 L2.75,19.8995995 L1.1,19.8995995 L1.1,0.6495995 C1.1,0.33752565 0.809272475,0.0995995 0.55,0.0995995 Z M19.8,0.6495995 C19.8,0.908871975 20.0616677,1.1995995 20.35,1.1995995 L22.3179688,1.1995995 L19.1726563,4.344912 L16.5171875,2.660537 C16.3001501,2.52161442 15.9852514,2.5638569 15.8125,2.75506825 L12.0140625,7.060537 L9.66796875,5.41913075 C9.4519458,5.26685747 9.12495348,5.3018922 8.94609375,5.4964745 L4.54609375,10.1714745 C4.3517397,10.3832088 4.36677643,10.7523243 4.57770858,10.9475487 C4.78864045,11.1427731 5.15781475,11.1292572 5.35390625,10.9191308 L9.42734375,6.5964745 L11.7820313,8.2464745 C12.0013341,8.40144745 12.3351514,8.3621747 12.5125,8.160537 L16.328125,3.83788075 L18.9578125,5.513662 C19.1664531,5.64352167 19.4626336,5.60977945 19.6367188,5.43631825 L23.1,1.973037 L23.1,3.9495995 C23.0958915,4.24017137 23.359399,4.5074326 23.65,4.5074326 C23.940601,4.5074326 24.2041093,4.24017137 24.2000474,3.9495995 L24.2000474,0.6495995 C24.2000474,0.361628025 23.9379715,0.0995995 23.65,0.0995995 L20.35,0.0995995 C20.0336584,0.0995995 19.8,0.390327025 19.8,0.6495995 Z M18.15,8.3495995 L20.35,8.3495995 L20.35,19.8995995 L18.15,19.8995995 L18.15,8.3495995 Z M11,11.0995995 L13.2,11.0995995 L13.2,19.8995995 L11,19.8995995 L11,11.0995995 Z M3.85,13.8495995 L6.05,13.8495995 L6.05,19.8995995 L3.85,19.8995995 L3.85,13.8495995 Z" id="Shape" fill="#000000" fill-rule="nonzero"></path>
                </g>
            </g>
        </g>
    </g>
</svg>