<?xml version="1.0" encoding="utf-8"?>
<!-- Generator: Adobe Illustrator 24.2.0, SVG Export Plug-In . SVG Version: 6.00 Build 0)  -->
<svg version="1.1" id="Layer_1" xmlns="http://www.w3.org/2000/svg" xmlns:xlink="http://www.w3.org/1999/xlink" x="0px" y="0px"
	 viewBox="0 0 79 79" style="enable-background:new 0 0 79 79;" xml:space="preserve">
<style type="text/css">
	.st0{fill-rule:evenodd;clip-rule:evenodd;fill:#0E63E8;}
	.st1{fill:#FFFFFF;}
</style>
<g id="High-Fidelity-Frontend">
	<g id="TTC-Hub---About-Us" transform="translate(-677.000000, -624.000000)">
		<circle id="Oval" class="st0" cx="716.5" cy="663.5" r="39.5"/>
		<g id="Layer_2_1_">
			<g id="Layer_1-2">
				<path class="st1" d="M736.5,650.5v5.1h-5.1v-5.1H736.5z M731.4,660.7v-5.1h-5.1v-5.1h5.1v-5.1h-10.2c-2.8,0-5.1,2.3-5.1,5.1
					v35.7c0-2.8,2.3-5.1,5.1-5.1h15.3v-20.4H731.4z M714.6,646.9c-1-1-2.3-1.5-3.6-1.5h-15.3v35.7H711c2.8,0,5.1,2.3,5.1,5.1v-35.7
					C716.1,649.1,715.6,647.8,714.6,646.9z M736.5,645.4v5.1h5.1v-5.1H736.5z M741.6,650.5v5.1h5.1v-5.1H741.6z M736.5,655.6v5.1
					h5.1v-5.1L736.5,655.6z"/>
			</g>
		</g>
	</g>
</g>
</svg>
