<svg xmlns="http://www.w3.org/2000/svg" xmlns:xlink="http://www.w3.org/1999/xlink" viewBox="0 0 1130.04 384.44"><defs><style>.cls-1{fill:#0c57ff;}.cls-2{fill:url(#linear-gradient);}</style><linearGradient id="linear-gradient" x1="618.9" y1="324.01" x2="1082.21" y2="0.01" gradientUnits="userSpaceOnUse"><stop offset="0" stop-color="#17c917"/><stop offset="0.23" stop-color="#14ac52"/><stop offset="0.61" stop-color="#107fae"/><stop offset="0.87" stop-color="#0d62e8"/><stop offset="1" stop-color="#0c57ff"/></linearGradient></defs><g id="Layer_2" data-name="Layer 2"><g id="Layer_1-2" data-name="Layer 1"><path class="cls-1" d="M128.53,158.45V79.35H79.1V.25H0V207.88A128.66,128.66,0,0,0,128.53,336.42v-79.1A49.51,49.51,0,0,1,79.1,207.88V158.45Z"/><path class="cls-1" d="M300.49,158.45V79.35H251.05V.25H172V207.88A128.66,128.66,0,0,0,300.49,336.42v-79.1a49.52,49.52,0,0,1-49.44-49.44V158.45Z"/><path class="cls-1" d="M427.54,242.89A49.44,49.44,0,0,1,497.46,173l55.93-55.93a128.53,128.53,0,1,0,0,181.77l-55.93-55.93A49.52,49.52,0,0,1,427.54,242.89Z"/><path class="cls-2" d="M1033.93,48.05V96.11H985.88V48.05Zm-48.05,96.11v-48H937.82V48.05h48.06V0H889.77a48.14,48.14,0,0,0-48.06,48.05V384.44a48.14,48.14,0,0,1,48.06-48.06h144.16V144.16ZM827.62,14.1a47.79,47.79,0,0,0-34-14.1H649.5V336.38H793.66a48.12,48.12,0,0,1,48.05,48.06V48.05A47.8,47.8,0,0,0,827.62,14.1ZM1033.93,0V48.05H1082V0ZM1082,48.05V96.11h48V48.05Zm-48.06,48.06v48.05H1082v-48Z"/></g></g></svg>