<svg xmlns="http://www.w3.org/2000/svg" xmlns:xlink="http://www.w3.org/1999/xlink" viewBox="0 0 480.55 384.44"><defs><style>.cls-1{fill:url(#linear-gradient);}</style><linearGradient id="linear-gradient" x1="-30.59" y1="324.01" x2="432.71" y2="0.01" gradientUnits="userSpaceOnUse"><stop offset="0" stop-color="#17c917"/><stop offset="0.23" stop-color="#14ac52"/><stop offset="0.61" stop-color="#107fae"/><stop offset="0.87" stop-color="#0d62e8"/><stop offset="1" stop-color="#0c57ff"/></linearGradient></defs><g id="Layer_2" data-name="Layer 2"><g id="Layer_1-2" data-name="Layer 1"><path class="cls-1" d="M384.44,48.05V96.11H336.38V48.05Zm-48.06,96.11v-48H288.33V48.05h48.05V0H240.27a48.12,48.12,0,0,0-48.05,48.05V384.44a48.12,48.12,0,0,1,48.05-48.06H384.44V144.16ZM178.12,14.1a47.78,47.78,0,0,0-34-14.1H0V336.38H144.16a48.14,48.14,0,0,1,48.06,48.06V48.05A47.77,47.77,0,0,0,178.12,14.1ZM384.44,0V48.05h48.05V0Zm48.05,48.05V96.11h48.06V48.05ZM384.44,96.11v48.05h48.05v-48Z"/></g></g></svg>