<?xml version="1.0" encoding="utf-8"?>
<!-- Generator: Adobe Illustrator 24.1.3, SVG Export Plug-In . SVG Version: 6.00 Build 0)  -->
<svg version="1.1" id="Layer_1" xmlns="http://www.w3.org/2000/svg" xmlns:xlink="http://www.w3.org/1999/xlink" x="0px" y="0px"
	 viewBox="0 0 480.5 384.4" style="enable-background:new 0 0 480.5 384.4;" xml:space="preserve">
<style type="text/css">
	.st0{fill:#1392EE;}
</style>
<g id="Layer_2_1_">
	<g id="Layer_1-2">
		<path class="st0" d="M384.4,48v48.1h-48.1V48H384.4z M336.4,144.2v-48h-48.1V48h48.1V0h-96.1c-26.5,0-48,21.5-48.1,48v336.4
			c0-26.5,21.5-48,48.1-48.1h144.2V144.2H336.4z M178.1,14.1C169.1,5,156.9,0,144.1,0H0v336.4h144.2c26.5,0,48,21.5,48,48.1V48
			C192.2,35.3,187.2,23.1,178.1,14.1z M384.4,0v48h48.1V0H384.4z M432.5,48v48.1h48V48H432.5z M384.4,96.1v48.1h48.1v-48L384.4,96.1
			z"/>
	</g>
</g>
</svg>
