<?xml version="1.0" encoding="UTF-8"?>
<svg width="16px" height="16px" viewBox="0 0 16 16" version="1.1" xmlns="http://www.w3.org/2000/svg" xmlns:xlink="http://www.w3.org/1999/xlink">
    <title>CloseHamburgerMobile</title>
    <g id="CloseHamburgerMobile" stroke="none" stroke-width="1" fill="none" fill-rule="evenodd">
        <path d="M2.34314575,0.928932188 L8.00003897,6.58503897 L13.6568542,0.928932188 C14.0173382,0.568448227 14.5845693,0.540718691 14.9768605,0.845743582 L15.0710678,0.928932188 C15.4615921,1.31945648 15.4615921,1.95262146 15.0710678,2.34314575 L15.0710678,2.34314575 L9.41503897,8.00003897 L15.0710678,13.6568542 C15.4615921,14.0473785 15.4615921,14.6805435 15.0710678,15.0710678 C14.6805435,15.4615921 14.0473785,15.4615921 13.6568542,15.0710678 L8.00003897,9.41503897 L2.34314575,15.0710678 C1.98266179,15.4315518 1.41543073,15.4592813 1.02313953,15.1542564 L0.928932188,15.0710678 C0.538407896,14.6805435 0.538407896,14.0473785 0.928932188,13.6568542 L0.928932188,13.6568542 L6.58503897,8.00003897 L0.928932188,2.34314575 C0.538407896,1.95262146 0.538407896,1.31945648 0.928932188,0.928932188 C1.31945648,0.538407896 1.95262146,0.538407896 2.34314575,0.928932188 Z" id="Combined-Shape" fill="#737988"></path>
    </g>
</svg>