<?xml version="1.0" encoding="utf-8"?>
<!-- Generator: Adobe Illustrator 24.1.0, SVG Export Plug-In . SVG Version: 6.00 Build 0)  -->
<svg version="1.1" id="Layer_1" xmlns="http://www.w3.org/2000/svg" xmlns:xlink="http://www.w3.org/1999/xlink" x="0px" y="0px"
	 viewBox="0 0 18 15" style="enable-background:new 0 0 18 15;" xml:space="preserve">
<style type="text/css">
	.st0{fill:#15C324;}
</style>
<desc>Created with Sketch.</desc>
<g id="Hifi---Company-Managers">
	<g id="_x30_6a-Company-Manager-_x3E_-Manage-Delegate" transform="translate(-938.000000, -1661.000000)">
		<g id="open-book-_x28_1_x29_-copy-3" transform="translate(938.000000, 1661.000000)">
			<path id="Shape" class="st0" d="M17.4,2l-1.3,0V0.7c0-0.3-0.2-0.6-0.5-0.6c-0.1,0-1.3-0.2-2.8,0.1c-1.7,0.3-3,1-3.9,2.2
				C8.1,1.2,6.8,0.5,5.1,0.2C3.7-0.1,2.4,0.1,2.4,0.1c-0.3,0-0.5,0.3-0.5,0.6V2H0.6C0.3,2,0,2.3,0,2.6V14c0,0.2,0.1,0.4,0.3,0.5
				s0.4,0.1,0.5,0.1c0,0,4.6-1.6,7.9,0c0.2,0.1,0.3,0.1,0.5,0c3.4-1.5,7.9,0,7.9,0c0.1,0,0.1,0,0.2,0c0.1,0,0.2,0,0.3-0.1
				c0.2-0.1,0.3-0.3,0.3-0.5V2.6C18,2.3,17.7,2,17.4,2z M1.2,13.2v-10h0.7v8c0,0.2,0.1,0.3,0.2,0.5c0.1,0.1,0.3,0.2,0.5,0.1
				c0,0,2.7-0.4,4.6,1C4.8,12.4,2.4,12.9,1.2,13.2z M8.4,12.2c-0.8-0.8-1.9-1.3-3.3-1.5c-0.6-0.1-1.2-0.1-1.7-0.1
				c-0.1,0-0.3,0-0.4,0V1.2h0c1.2-0.1,4,0.1,5.3,2.3V12.2z M9.6,3.6c1.3-2.3,4.2-2.4,5.3-2.3v9.3c-0.5,0-1.2,0-2.1,0.1
				c-1.3,0.2-2.4,0.8-3.3,1.5V3.6z M10.9,12.8c1.9-1.3,4.5-1,4.6-1c0.2,0,0.4,0,0.5-0.1c0.1-0.1,0.2-0.3,0.2-0.5v-8h0.7v10
				C15.6,12.9,13.2,12.4,10.9,12.8z"/>
		</g>
	</g>
</g>
</svg>
