<?xml version="1.0" encoding="UTF-8"?>
<svg width="24px" height="24px" viewBox="0 0 24 24" version="1.1" xmlns="http://www.w3.org/2000/svg" xmlns:xlink="http://www.w3.org/1999/xlink">
    <!-- Generator: Sketch 64 (93537) - https://sketch.com -->
    <title>calendar</title>
    <desc>Created with Sketch.</desc>
    <g id="Symbols" stroke="none" stroke-width="1" fill="none" fill-rule="evenodd">
        <g id="CourseCard_Classroom_air-KnownConsignors" transform="translate(-23.000000, -274.000000)" fill="#15C324" fill-rule="nonzero">
            <g id="calendar" transform="translate(23.000000, 274.000000)">
                <path d="M21.3253615,2.06288015 L20.4984015,2.06288015 L20.4984015,0.857040061 C20.4984015,0.42040003 20.1444014,0.0663200047 19.7076814,0.0663200047 C19.2710414,0.0663200047 18.9169613,0.42032003 18.9169613,0.857040061 L18.9169613,2.06280015 L4.84296034,2.06280015 L4.84296034,0.857040061 C4.84296034,0.42040003 4.48896032,0.0663200047 4.05224029,0.0663200047 C3.61552026,0.0663200047 3.26152023,0.42032003 3.26152023,0.857040061 L3.26152023,2.06280015 L2.43456017,2.06280015 C1.09216008,2.06288015 0,3.15496022 0,4.49744032 L0,20.7790415 C0,22.1215216 1.09216008,23.2136016 2.43456017,23.2136016 L21.3252815,23.2136016 C22.6677616,23.2136016 23.7599217,22.1214416 23.7599217,20.7790415 L23.7599217,4.49744032 C23.7599217,3.15496022 22.6677616,2.06288015 21.3253615,2.06288015 Z M22.1786416,20.7789615 C22.1786416,21.2495215 21.7959215,21.6322415 21.3253615,21.6322415 L2.43456017,21.6322415 C1.96408014,21.6322415 1.58136011,21.2495215 1.58136011,20.7790415 L1.58136011,7.55808053 L22.1786416,7.55808053 L22.1786416,20.7789615 Z M22.1788016,5.97672042 L1.58136011,5.97672042 L1.58136011,4.49744032 C1.58136011,4.02696029 1.96408014,3.64424026 2.43456017,3.64424026 L3.26160023,3.64424026 L3.26160023,4.77096034 C3.26160023,5.20760037 3.61560026,5.56168039 4.05232029,5.56168039 C4.48904032,5.56168039 4.84304034,5.20768037 4.84304034,4.77096034 L4.84304034,3.64424026 L18.9172013,3.64424026 L18.9172013,4.77096034 C18.9172013,5.20760037 19.2712014,5.56168039 19.7079214,5.56168039 C20.1445614,5.56168039 20.4986415,5.20768037 20.4986415,4.77096034 L20.4986415,3.64424026 L21.3255215,3.64424026 C21.7960815,3.64424026 22.1788016,4.02696029 22.1788016,4.49744032 L22.1788016,5.97672042 Z" id="Shape"></path>
                <path d="M5.14816036,12.2532009 C6.11560043,12.2532009 6.90264049,11.4661608 6.90264049,10.4987207 C6.90264049,9.53128067 6.11560043,8.74416062 5.14816036,8.74416062 C4.1807203,8.74416062 3.39360024,9.53128067 3.39360024,10.4987207 C3.39360024,11.4661608 4.1807203,12.2532009 5.14816036,12.2532009 Z M5.14816036,10.0092807 C5.41800038,10.0092807 5.6375204,10.2288807 5.6375204,10.4987207 C5.6375204,10.7685608 5.41800038,10.9880808 5.14816036,10.9880808 C4.87832035,10.9880808 4.65872033,10.7685608 4.65872033,10.4987207 C4.65872033,10.2288807 4.87832035,10.0092807 5.14816036,10.0092807 Z" id="Shape"></path>
                <circle id="Oval" cx="9.63608068" cy="10.4986407" r="1.12200008"></circle>
                <path d="M14.123921,12.2532009 C15.0913611,12.2532009 15.8784811,11.4661608 15.8784811,10.4987207 C15.8784811,9.53128067 15.0913611,8.74416062 14.123921,8.74416062 C13.1564809,8.74416062 12.3694409,9.53128067 12.3694409,10.4987207 C12.3694409,11.4661608 13.1564809,12.2532009 14.123921,12.2532009 Z M14.123921,10.0092807 C14.393761,10.0092807 14.613361,10.2288807 14.613361,10.4987207 C14.613361,10.7685608 14.393841,10.9880808 14.123921,10.9880808 C13.854081,10.9880808 13.634561,10.7685608 13.634561,10.4987207 C13.634561,10.2288807 13.854081,10.0092807 14.123921,10.0092807 Z" id="Shape"></path>
                <path d="M18.6118413,12.2532009 C19.5792814,12.2532009 20.3664014,11.4661608 20.3664014,10.4987207 C20.3664014,9.53128067 19.5792814,8.74416062 18.6118413,8.74416062 C17.6444012,8.74416062 16.8573612,9.53128067 16.8573612,10.4987207 C16.8573612,11.4661608 17.6444012,12.2532009 18.6118413,12.2532009 Z M18.6118413,10.0092807 C18.8816813,10.0092807 19.1012814,10.2288807 19.1012814,10.4987207 C19.1012814,10.7685608 18.8816813,10.9880808 18.6118413,10.9880808 C18.3420013,10.9880808 18.1224813,10.7685608 18.1224813,10.4987207 C18.1224813,10.2288807 18.3420013,10.0092807 18.6118413,10.0092807 Z" id="Shape"></path>
                <path d="M5.14816036,16.3497612 C6.11560043,16.3497612 6.90264049,15.5626411 6.90264049,14.595201 C6.90264049,13.627761 6.11560043,12.8406409 5.14816036,12.8406409 C4.1807203,12.8406409 3.39360024,13.627761 3.39360024,14.595201 C3.39360024,15.5626411 4.1807203,16.3497612 5.14816036,16.3497612 Z M5.14816036,14.105761 C5.41800038,14.105761 5.6375204,14.325361 5.6375204,14.595201 C5.6375204,14.8650411 5.41800038,15.0846411 5.14816036,15.0846411 C4.87832035,15.0846411 4.65872033,14.8650411 4.65872033,14.595201 C4.65872033,14.325361 4.87832035,14.105761 5.14816036,14.105761 Z" id="Shape"></path>
                <path d="M9.63608068,16.3497612 C10.6035208,16.3497612 11.3905608,15.5626411 11.3905608,14.595201 C11.3905608,13.627761 10.6035208,12.8406409 9.63608068,12.8406409 C8.66864061,12.8406409 7.88152056,13.627761 7.88152056,14.595201 C7.88152056,15.5626411 8.66864061,16.3497612 9.63608068,16.3497612 Z M9.63608068,14.105761 C9.9059207,14.105761 10.1254407,14.325361 10.1254407,14.595201 C10.1254407,14.8650411 9.9059207,15.0846411 9.63608068,15.0846411 C9.36624066,15.0846411 9.14664065,14.8650411 9.14664065,14.595201 C9.14664065,14.325361 9.36624066,14.105761 9.63608068,14.105761 Z" id="Shape"></path>
                <path d="M14.123921,16.3497612 C15.0913611,16.3497612 15.8784811,15.5626411 15.8784811,14.595201 C15.8784811,13.627761 15.0913611,12.8406409 14.123921,12.8406409 C13.1564809,12.8406409 12.3694409,13.627761 12.3694409,14.595201 C12.3694409,15.5626411 13.1564809,16.3497612 14.123921,16.3497612 Z M14.123921,14.105761 C14.393761,14.105761 14.613361,14.325361 14.613361,14.595201 C14.613361,14.8650411 14.393841,15.0846411 14.123921,15.0846411 C13.854081,15.0846411 13.634561,14.8650411 13.634561,14.595201 C13.634561,14.325361 13.854081,14.105761 14.123921,14.105761 Z" id="Shape"></path>
                <path d="M18.6118413,16.3497612 C19.5792814,16.3497612 20.3664014,15.5626411 20.3664014,14.595201 C20.3664014,13.627761 19.5792814,12.8406409 18.6118413,12.8406409 C17.6444012,12.8406409 16.8573612,13.627761 16.8573612,14.595201 C16.8573612,15.5626411 17.6444012,16.3497612 18.6118413,16.3497612 Z M18.6118413,14.105761 C18.8816813,14.105761 19.1012814,14.325361 19.1012814,14.595201 C19.1012814,14.8650411 18.8816813,15.0846411 18.6118413,15.0846411 C18.3420013,15.0846411 18.1224813,14.8650411 18.1224813,14.595201 C18.1224813,14.325361 18.3420013,14.105761 18.6118413,14.105761 Z" id="Shape"></path>
                <path d="M5.14816036,20.4462414 C6.11560043,20.4462414 6.90264049,19.6591214 6.90264049,18.6916813 C6.90264049,17.7242413 6.11560043,16.9372012 5.14816036,16.9372012 C4.1807203,16.9372012 3.39360024,17.7242413 3.39360024,18.6916813 C3.39360024,19.6591214 4.1807203,20.4462414 5.14816036,20.4462414 Z M5.14816036,18.2023213 C5.41800038,18.2023213 5.6375204,18.4218413 5.6375204,18.6916813 C5.6375204,18.9615213 5.41800038,19.1811214 5.14816036,19.1811214 C4.87832035,19.1811214 4.65872033,18.9615213 4.65872033,18.6916813 C4.65872033,18.4218413 4.87832035,18.2023213 5.14816036,18.2023213 Z" id="Shape"></path>
                <path d="M9.63608068,20.4462414 C10.6035208,20.4462414 11.3905608,19.6591214 11.3905608,18.6916813 C11.3905608,17.7242413 10.6035208,16.9372012 9.63608068,16.9372012 C8.66864061,16.9372012 7.88152056,17.7242413 7.88152056,18.6916813 C7.88152056,19.6591214 8.66864061,20.4462414 9.63608068,20.4462414 Z M9.63608068,18.2023213 C9.9059207,18.2023213 10.1254407,18.4218413 10.1254407,18.6916813 C10.1254407,18.9615213 9.9059207,19.1811214 9.63608068,19.1811214 C9.36624066,19.1811214 9.14664065,18.9615213 9.14664065,18.6916813 C9.14664065,18.4218413 9.36624066,18.2023213 9.63608068,18.2023213 Z" id="Shape"></path>
                <circle id="Oval" cx="14.124001" cy="18.6916813" r="1.12200008"></circle>
                <path d="M18.6118413,20.4462414 C19.5792814,20.4462414 20.3664014,19.6591214 20.3664014,18.6916813 C20.3664014,17.7242413 19.5792814,16.9372012 18.6118413,16.9372012 C17.6444012,16.9372012 16.8573612,17.7242413 16.8573612,18.6916813 C16.8573612,19.6591214 17.6444012,20.4462414 18.6118413,20.4462414 Z M18.6118413,18.2023213 C18.8816813,18.2023213 19.1012814,18.4218413 19.1012814,18.6916813 C19.1012814,18.9615213 18.8816813,19.1811214 18.6118413,19.1811214 C18.3420013,19.1811214 18.1224813,18.9615213 18.1224813,18.6916813 C18.1224813,18.4218413 18.3420013,18.2023213 18.6118413,18.2023213 Z" id="Shape"></path>
            </g>
        </g>
    </g>
</svg>