<?xml version="1.0" encoding="UTF-8"?>
<svg width="18px" height="22px" viewBox="0 0 18 22" version="1.1" xmlns="http://www.w3.org/2000/svg" xmlns:xlink="http://www.w3.org/1999/xlink">
    <!-- Generator: Sketch 64 (93537) - https://sketch.com -->
    <title>fail</title>
    <desc>Created with Sketch.</desc>
    <g id="Hifi---Company-Managers" stroke="none" stroke-width="1" fill="none" fill-rule="evenodd">
        <g id="06a-Company-Manager-&gt;-Manage-Delegate" transform="translate(-938.000000, -1073.000000)" fill="#DB5C5D" fill-rule="nonzero">
            <g id="fail" transform="translate(938.000000, 1073.000000)">
                <polygon id="Path" points="5.68675823 10.1559364 13.8872586 10.1559364 13.8872586 11.4159365 5.68675823 11.4159365"></polygon>
                <polygon id="Path" points="3.16474213 10.1559364 4.42575018 10.1559364 4.42575018 11.4159365 3.16474213 11.4159365"></polygon>
                <polygon id="Path" points="5.68675823 7.6339203 13.8872586 7.6339203 13.8872586 8.89392035 5.68675823 8.89392035"></polygon>
                <polygon id="Path" points="3.16474213 7.6339203 4.42575018 7.6339203 4.42575018 8.89392035 3.16474213 8.89392035"></polygon>
                <polygon id="Path" points="5.68675823 12.6779525 13.8872586 12.6779525 13.8872586 13.9379526 5.68675823 13.9379526"></polygon>
                <polygon id="Path" points="3.16474213 12.6779525 4.42575018 12.6779525 4.42575018 13.9379526 3.16474213 13.9379526"></polygon>
                <polygon id="Path" points="5.68675823 15.1999686 13.8872586 15.1999686 13.8872586 16.4599687 5.68675823 16.4599687"></polygon>
                <polygon id="Path" points="3.16474213 15.1999686 4.42575018 15.1999686 4.42575018 16.4599687 3.16474213 16.4599687"></polygon>
                <polygon id="Path" points="5.68675823 17.7219847 13.8872586 17.7219847 13.8872586 18.9819848 5.68675823 18.9819848"></polygon>
                <polygon id="Path" points="3.16474213 17.7219847 4.42575018 17.7219847 4.42575018 18.9819848 3.16474213 18.9819848"></polygon>
                <polygon id="Path" points="7.4853663 6.37681825 8.52600034 5.33618421 9.56663438 6.37681825 10.4575804 5.48587222 9.41694637 4.44523818 10.4575804 3.40464614 9.56663438 2.5137001 8.52600034 3.55433414 7.4853663 2.5137001 6.59442026 3.40464614 7.6350543 4.44523818 6.59442026 5.48587222"></polygon>
                <path d="M12.8048765,0 L0.0127260005,0 L0.0127260005,21.5040009 L17.0393167,21.5040009 L17.0393167,4.23439817 L12.8048765,0 Z M13.1739305,2.15094609 L14.8883286,3.86534415 L13.1739305,3.86534415 L13.1739305,2.15094609 Z M1.27272605,20.2440008 L1.27272605,1.26000005 L11.9139305,1.26000005 L11.9139305,5.1253442 L15.7792746,5.1253442 L15.7792746,20.2440008 L1.27272605,20.2440008 Z" id="Shape"></path>
            </g>
        </g>
    </g>
</svg>