<?xml version="1.0" encoding="UTF-8"?>
<svg width="11px" height="7px" viewBox="0 0 11 7" version="1.1" xmlns="http://www.w3.org/2000/svg" xmlns:xlink="http://www.w3.org/1999/xlink">
    <title>40399489-5F67-4B4F-948F-23BCB8E92D0C</title>
    <g id="High-Fidelity-Frontend" stroke="none" stroke-width="1" fill="none" fill-rule="evenodd">
        <g id="TTC-Hub---Add-to-Basket-Action" transform="translate(-362.000000, -46.000000)" fill="#0E63E8" fill-rule="nonzero">
            <g id="HEADER" transform="translate(1.000000, 0.000000)">
                <g id="Group">
                    <g transform="translate(292.000000, 34.000000)">
                        <g id="Nav-Arrow" transform="translate(74.500000, 15.500000) scale(-1, 1) rotate(90.000000) translate(-74.500000, -15.500000) translate(71.000000, 10.000000)">
                            <g id="Arrow-Right" transform="translate(3.500000, 5.500000) rotate(-90.000000) translate(-3.500000, -5.500000) translate(-2.000000, 2.000000)">
                                <path d="M0.0190476193,2.50158734 L6.27301597,2.46984131 C6.61492424,2.46810573 6.89350262,2.74387019 6.8952382,3.08577847 C6.89524883,3.08787348 6.89524883,3.08996853 6.8952382,3.09206354 C6.89347972,3.43848296 6.61308618,3.7188765 6.26666676,3.72063498 L0.0126984129,3.75238101 C-0.329209862,3.75411658 -0.607788244,3.47835212 -0.609523819,3.13644385 C-0.609534453,3.13434884 -0.609534453,3.13225379 -0.609523819,3.13015878 C-0.607765344,2.78373936 -0.327371802,2.50334581 0.0190476193,2.50158734 Z" id="Rectangle" transform="translate(3.142857, 3.111111) rotate(45.000000) translate(-3.142857, -3.111111) "></path>
                                <path d="M4.57065117,2.56904372 L11.015177,2.53705773 C11.3605855,2.53535166 11.6391522,2.8139505 11.6374071,3.15935918 C11.6356458,3.50471691 11.3542569,3.78610581 11.0088991,3.7878589 C11.0088754,3.78785902 11.0088516,3.78785914 11.0088278,3.78785926 L4.56430196,3.81984526 C4.21889349,3.82155134 3.94032675,3.54295248 3.94207186,3.1975438 C3.94383318,2.85218608 4.22522211,2.57079717 4.57057984,2.56904408 C4.5706036,2.56904396 4.5706274,2.56904384 4.57065117,2.56904372 Z" id="Rectangle" transform="translate(7.789739, 3.178451) scale(-1, 1) rotate(45.000000) translate(-7.789739, -3.178451) "></path>
                            </g>
                        </g>
                    </g>
                </g>
            </g>
        </g>
    </g>
</svg>