<?xml version="1.0" encoding="UTF-8"?>
<svg width="30px" height="30px" viewBox="0 0 30 30" version="1.1" xmlns="http://www.w3.org/2000/svg" xmlns:xlink="http://www.w3.org/1999/xlink">
    <!-- Generator: Sketch 64 (93537) - https://sketch.com -->
    <title>Group</title>
    <desc>Created with Sketch.</desc>
    <g id="Hifi---Company-Managers" stroke="none" stroke-width="1" fill="none" fill-rule="evenodd">
        <g id="13-Company-Manager-&gt;-Add-Delegate" transform="translate(-854.000000, -272.000000)">
            <g id="Group" transform="translate(856.000000, 274.000000)">
                <circle id="Oval" stroke="#15C324" stroke-width="2.61999989" fill="#FFFFFF" cx="13" cy="13" r="13"></circle>
                <g id="edit" transform="translate(7.000000, 6.000000)" fill="#0C152E" fill-rule="nonzero">
                    <path d="M9.45933052,4.06799657 C9.35056458,3.95924117 9.15796729,3.95924117 9.04920135,4.06799657 L3.53242968,9.58474528 C3.46643595,9.6507375 3.43641655,9.74422422 3.45112714,9.83627101 C3.46613684,9.92831779 3.52448977,10.0076226 3.6077501,10.0492718 L4.06065148,10.2758569 L4.06065148,11.0379054 L2.67304279,11.4346195 L1.27240939,10.033976 L1.66913316,8.64634621 L2.43117453,8.64634621 L2.65776118,9.09924466 C2.69939134,9.18251603 2.77870891,9.24087391 2.87075208,9.25587091 C2.8863328,9.25842474 2.90191352,9.25953865 2.91719514,9.25953865 C2.99338568,9.25953865 3.06759124,9.22951749 3.12227332,9.17455567 L8.63904499,3.65783413 C8.69342796,3.60344284 8.72401838,3.52981628 8.72401838,3.45276649 C8.72401838,3.3757167 8.69342796,3.30209014 8.63904499,3.24769885 L7.57235022,2.18098308 C7.51796725,2.1265918 7.4443327,2.0960001 7.36727203,2.0960001 L7.36670101,2.0960001 C7.28936843,2.09627178 7.21543478,2.12716233 7.16135092,2.1818253 L1.24437497,8.15209734 C1.24151986,8.15500436 1.24165582,8.15943283 1.23890948,8.16239419 C1.2091348,8.19453449 1.18428179,8.23164663 1.17128426,8.27671913 L0.667670759,10.0387848 L0.011132349,12.3373463 C-0.0177721998,12.4384674 0.0105613278,12.5475216 0.0850659972,12.6220176 C0.140291904,12.6772511 0.214225552,12.7070006 0.290144179,12.7070006 C0.316764643,12.7070006 0.343385107,12.7033057 0.369733656,12.695943 L2.66825709,12.0393897 L4.43031972,11.5357677 C4.43562206,11.5342463 4.43926572,11.5302525 4.44445929,11.5284322 C4.46275916,11.5221291 4.47877494,11.5118594 4.49560647,11.5019158 C4.5121389,11.492108 4.52867132,11.4833869 4.54264774,11.4707807 C4.54640017,11.4674661 4.55132183,11.4662436 4.55493829,11.4626845 L10.5251824,5.54568984 C10.5798372,5.49159741 10.6107268,5.41767199 10.6110005,5.34035052 C10.6112706,5.26330073 10.5806802,5.18937531 10.5260253,5.13471234 L9.45933052,4.06799657 Z" id="Path"></path>
                    <path d="M12.3686079,2.06491942 L10.6358989,0.328365728 C10.1993374,-0.109175098 9.4398694,-0.110015532 9.00160231,0.329206162 L7.94375637,1.39902452 C7.83180713,1.51237468 7.83207786,1.69466754 7.94459565,1.80744838 L10.8928001,4.76219771 C10.9491943,4.81872368 11.0231052,4.84700022 11.096989,4.84700022 C11.1706021,4.84700022 11.2439173,4.8190219 11.3003116,4.76306526 L12.3685808,3.70203079 C12.5868751,3.48327393 12.7070006,3.19270062 12.7070006,2.88350222 C12.7070006,2.57430381 12.5869022,2.28367628 12.3686079,2.06491942 Z" id="Path"></path>
                </g>
            </g>
        </g>
    </g>
</svg>