<?xml version="1.0" encoding="UTF-8"?>
<svg width="17px" height="17px" viewBox="0 0 17 17" version="1.1" xmlns="http://www.w3.org/2000/svg" xmlns:xlink="http://www.w3.org/1999/xlink">
    <!-- Generator: Sketch 64 (93537) - https://sketch.com -->
    <title>tickbox_checked</title>
    <desc>Created with Sketch.</desc>
    <g id="tickbox_checked" stroke="none" stroke-width="1" fill="none" fill-rule="evenodd">
        <g id="tickbox">
            <rect id="Rectangle" stroke="#EDEDED" fill="#FFFFFF" x="0.5" y="0.5" width="16" height="16" rx="4"></rect>
            <path d="M13.1842152,4.81112664 C13.7181218,5.25729019 13.7892516,6.05179405 13.3430881,6.58570066 C13.3419983,6.58700479 13.3409058,6.58830671 13.3398107,6.58960642 L7.91119475,13.0326469 C7.46052345,13.5675334 6.66220876,13.6373763 6.12550275,13.1888734 C5.59159614,12.7427098 5.52046634,11.948206 5.9666299,11.4142993 C5.9677197,11.4129952 5.96881215,11.4116933 5.96990723,11.4103936 L11.3985232,4.96735314 C11.8491945,4.43246664 12.6475092,4.36262374 13.1842152,4.81112664 Z" id="Rectangle" fill="#0E63E8"></path>
            <path d="M4.08832202,9.73887829 C3.60157092,10.1241638 3.51931685,10.8310892 3.9046024,11.3178403 C3.91795703,11.3347119 3.93179337,11.3511966 3.94609432,11.3672739 L5.4966976,13.1104827 C5.94084427,13.6097983 6.69741215,13.6758786 7.22139596,13.2611217 C7.70814705,12.8758362 7.79040113,12.1689108 7.40511558,11.6821597 C7.39176095,11.6652881 7.3779246,11.6488034 7.36362366,11.6327261 L5.81302038,9.88951729 C5.3688737,9.39020168 4.61230583,9.32412136 4.08832202,9.73887829 Z" id="Rectangle-Copy-20" fill="#0E63E8"></path>
        </g>
    </g>
</svg>