<?xml version="1.0" encoding="UTF-8"?>
<svg width="20px" height="20px" viewBox="0 0 20 20" version="1.1" xmlns="http://www.w3.org/2000/svg" xmlns:xlink="http://www.w3.org/1999/xlink">
    <title>Delegates that are just Individuals</title>
    <g id="Delegates-that-are-just-Individuals" stroke="none" stroke-width="1" fill="none" fill-rule="evenodd">
        <g id="07a-Individuals----Transcript-Scroll-Under---No-video" transform="translate(-572.000000, -169.000000)">
            <rect id="Rectangle" fill="#FFFFFF" x="272" y="81" width="1169" height="134"></rect>
            <g id="pause" transform="translate(572.000000, 169.000000)" fill="#0C152E" fill-rule="nonzero">
                <path d="M17.0695057,2.9305193 C13.1624342,-0.976546476 6.83814257,-0.977133046 2.9305236,2.9305193 C-0.976547908,6.83758507 -0.977134479,13.1618675 2.9305236,17.0694807 C6.8375951,20.9765465 13.1618868,20.977133 17.0695057,17.0694807 C20.9765381,13.162454 20.9771247,6.83817164 17.0695057,2.9305193 Z M9.99999511,18.3553599 C5.39283152,18.3553599 1.64460345,14.6071373 1.64460345,9.99998045 C1.64460345,5.39282361 5.39283152,1.64464015 9.99999511,1.64464015 C14.6071587,1.64464015 18.3553477,5.39286271 18.3553477,10.0000196 C18.3553477,14.6071764 14.6071587,18.3553599 9.99999511,18.3553599 Z" id="Shape"></path>
            </g>
            <g id="play-solid" transform="translate(580.000000, 176.000000)" fill="#0C152E" fill-rule="nonzero">
                <path d="M4.73673915,2.51553785 L0.808058234,0.0769649794 C0.488852909,-0.121073855 0,0.0711058423 0,0.560929705 L0,5.43690361 C0,5.87633889 0.454253731,6.14117189 0.808058234,5.92086834 L4.73673915,3.4834673 C5.08719534,3.26667922 5.08831145,2.73232592 4.73673915,2.51553785 Z" id="Path"></path>
            </g>
        </g>
    </g>
</svg>