<?xml version="1.0" encoding="UTF-8"?>
<svg width="31px" height="31px" viewBox="0 0 31 31" version="1.1" xmlns="http://www.w3.org/2000/svg" xmlns:xlink="http://www.w3.org/1999/xlink">
    <!-- Generator: Sketch 64 (93537) - https://sketch.com -->
    <title>PDF_Certificate</title>
    <desc>Created with Sketch.</desc>
    <defs>
        <linearGradient x1="105.568359%" y1="-5.0703125%" x2="3.8359375%" y2="107.849609%" id="linearGradient-1">
            <stop stop-color="#16BB33" offset="0%"></stop>
            <stop stop-color="#0E69DA" offset="100%"></stop>
        </linearGradient>
        <circle id="path-2" cx="15.5" cy="15.5" r="14.5"></circle>
        <filter x="-6.9%" y="-6.9%" width="113.8%" height="113.8%" filterUnits="objectBoundingBox" id="filter-3">
            <feMorphology radius="0.5" operator="dilate" in="SourceAlpha" result="shadowSpreadOuter1"></feMorphology>
            <feOffset dx="0" dy="0" in="shadowSpreadOuter1" result="shadowOffsetOuter1"></feOffset>
            <feGaussianBlur stdDeviation="0.5" in="shadowOffsetOuter1" result="shadowBlurOuter1"></feGaussianBlur>
            <feComposite in="shadowBlurOuter1" in2="SourceAlpha" operator="out" result="shadowBlurOuter1"></feComposite>
            <feColorMatrix values="0 0 0 0 0   0 0 0 0 0   0 0 0 0 0  0 0 0 0.5 0" type="matrix" in="shadowBlurOuter1"></feColorMatrix>
        </filter>
    </defs>
    <g id="PDF_Certificate" stroke="none" stroke-width="1" fill="none" fill-rule="evenodd">
        <g id="Oval">
            <use fill="black" fill-opacity="1" filter="url(#filter-3)" xlink:href="#path-2"></use>
            <use stroke="url(#linearGradient-1)" stroke-width="1" fill="#FFFFFF" fill-rule="evenodd" xlink:href="#path-2"></use>
        </g>
        <g id="document-(2)" transform="translate(9.000000, 7.000000)" fill="#D50030" fill-rule="nonzero">
            <path d="M3.38182799,10.701693 C3.38182799,10.4254515 3.19014599,10.260714 2.85194249,10.260714 C2.71383899,10.260714 2.62030949,10.2743415 2.57138849,10.2873825 L2.57138849,11.1736875 C2.62931399,11.1867285 2.70052199,11.1910755 2.79867449,11.1910755 C3.15916499,11.1910755 3.38182799,11.00895 3.38182799,10.701693 Z" id="Path"></path>
            <path d="M5.47546048,10.2699945 C5.32400548,10.2699945 5.22612898,10.28307 5.16823798,10.2966285 L5.16823798,12.2595405 C5.22616348,12.2731335 5.31969298,12.2731335 5.40425248,12.2731335 C6.01866298,12.2774805 6.41938048,11.939277 6.41938048,11.222643 C6.42372748,10.5994695 6.05857948,10.2699945 5.47546048,10.2699945 Z" id="Path"></path>
            <path d="M9.36530097,0 L2.68447949,0 C1.70847449,0 0.914111997,0.794914497 0.914111997,1.77036749 L0.914111997,8.31688047 L0.741197997,8.31688047 C0.347276999,8.31688047 0.0278069999,8.63603997 0.0278069999,9.03030597 L0.0278069999,13.356744 C0.0278069999,13.7509755 0.347242499,14.0701005 0.741197997,14.0701005 L0.914111997,14.0701005 L0.914111997,14.8634279 C0.914111997,15.8399504 1.70847449,16.6337954 2.68447949,16.6337954 L11.800173,16.6337954 C12.775557,16.6337954 13.570023,15.8399159 13.570023,14.8634279 L13.570023,4.18999049 L9.36530097,0 Z M1.89932849,9.81107547 C2.10839849,9.77574747 2.40226949,9.74911347 2.81630399,9.74911347 C3.23471999,9.74911347 3.53293799,9.82898097 3.73331399,9.98940597 C3.92471999,10.140585 4.05388799,10.3901235 4.05388799,10.6837875 C4.05388799,10.9773825 3.95601149,11.22699 3.77792249,11.3960745 C3.54628949,11.6141145 3.20373899,11.711991 2.80302149,11.711991 C2.71383899,11.711991 2.63390249,11.707575 2.57138849,11.6989155 L2.57138849,12.7717275 L1.89932849,12.7717275 L1.89932849,9.81107547 Z M11.800173,15.5495984 L2.68447949,15.5495984 C2.30656649,15.5495984 1.99882649,15.2418584 1.99882649,14.8634279 L1.99882649,14.0701005 L10.4965215,14.0701005 C10.8905115,14.0701005 11.209947,13.7509755 11.209947,13.356744 L11.209947,9.03030597 C11.209947,8.63603997 10.8905115,8.31688047 10.4965215,8.31688047 L1.99882649,8.31688047 L1.99882649,1.77036749 C1.99882649,1.3930065 2.30660099,1.0852665 2.68447949,1.0852665 L8.95968447,1.0787115 L8.95968447,3.39824999 C8.95968447,4.07576099 9.50940747,4.62600148 10.187436,4.62600148 L12.459675,4.61948098 L12.4852395,14.8633934 C12.4852395,15.2418584 12.1780515,15.5495984 11.800173,15.5495984 Z M4.48724248,12.7581345 L4.48724248,9.81107547 C4.73650498,9.77140047 5.06139148,9.74911347 5.40425248,9.74911347 C5.97405448,9.74911347 6.34354948,9.85133697 6.63307348,10.0693425 C6.94464298,10.3009755 7.14036148,10.6701945 7.14036148,11.200287 C7.14036148,11.7744705 6.93129148,12.1708755 6.64173298,12.415515 C6.32581648,12.678129 5.84492098,12.802674 5.25742048,12.802674 C4.90558948,12.802674 4.65632698,12.780387 4.48724248,12.7581345 Z M9.34577397,11.013297 L9.34577397,11.565159 L8.26833897,11.565159 L8.26833897,12.7717275 L7.58730897,12.7717275 L7.58730897,9.77140047 L9.42132897,9.77140047 L9.42132897,10.3276095 L8.26833897,10.3276095 L8.26833897,11.013297 L9.34577397,11.013297 Z" id="Shape"></path>
        </g>
    </g>
</svg>