<?xml version="1.0" encoding="UTF-8"?>
<svg width="164px" height="45px" viewBox="0 0 164 45" version="1.1" xmlns="http://www.w3.org/2000/svg" xmlns:xlink="http://www.w3.org/1999/xlink">
    <!-- Generator: Sketch 54 (76480) - https://sketchapp.com -->
    <title>stripe</title>
    <desc>Created with Sketch.</desc>
    <g id="Delegates-that-are-just-Individuals" stroke="none" stroke-width="1" fill="none" fill-rule="evenodd">
        <g id="05d-Individuals-Book-Another-Course-&gt;-Payment-Complete" transform="translate(-1216.000000, -692.000000)">
            <g id="stripe" transform="translate(1216.000000, 692.000000)">
                <path d="M6.60402685,0 L157.395973,0 C161.043597,0 164,2.94804878 164,6.58536585 L164,38.4146341 C164,42.0519512 161.043597,45 157.395973,45 L6.60402685,45 C2.95640268,45 0,42.0519512 0,38.4146341 L0,6.58536585 C0,2.94804878 2.95640268,0 6.60402685,0 Z" id="Path" fill="#32364E"></path>
                <path d="M78.1306881,28.9710686 L76.5258842,28.9710686 L77.7684547,25.951766 L75.2953881,19.8127334 L76.9912993,19.8127334 L78.5456101,23.9907312 L80.1119954,19.8127334 L81.8079065,19.8127334 L78.1306881,28.9710686 Z M71.9672311,26.3340382 C71.4107088,26.3340382 70.8410144,26.1310236 70.3229108,25.735793 L70.3229108,26.1817773 L68.666516,26.1817773 L68.666516,17.0234421 L70.3229108,17.0234421 L70.3229108,20.2468391 C70.8410144,19.8645669 71.4107088,19.6604724 71.9672311,19.6604724 C73.7026586,19.6604724 74.8936383,21.0362205 74.8936383,22.9972553 C74.8936383,24.9582902 73.7026586,26.3340382 71.9672311,26.3340382 L71.9672311,26.3340382 Z M71.6181698,21.0610574 C71.1648291,21.0610574 70.7114885,21.2521935 70.3229108,21.6344657 L70.3229108,24.360045 C70.7114885,24.7423172 71.1648291,24.9334533 71.6181698,24.9334533 C72.5500977,24.9334533 73.1977272,24.144072 73.1977272,22.9972553 C73.1977272,21.8515186 72.5500977,21.0610574 71.6181698,21.0610574 Z M61.9586111,25.735793 C61.4536796,26.1310236 60.8839852,26.3340382 60.3142908,26.3340382 C58.5920354,26.3340382 57.3889813,24.9582902 57.3889813,22.9972553 C57.3889813,21.0362205 58.5920354,19.6604724 60.3142908,19.6604724 C60.8839852,19.6604724 61.4536796,19.8645669 61.9586111,20.2468391 L61.9586111,17.0234421 L63.6292757,17.0234421 L63.6292757,26.1817773 L61.9586111,26.1817773 L61.9586111,25.735793 Z M61.9586111,21.6344657 C61.5832055,21.2521935 61.1298649,21.0610574 60.6765242,21.0610574 C59.7314242,21.0610574 59.0848924,21.8515186 59.0848924,22.9972553 C59.0848924,24.144072 59.7314242,24.9334533 60.6765242,24.9334533 C61.1298649,24.9334533 61.5832055,24.7423172 61.9586111,24.360045 L61.9586111,21.6344657 Z M52.0926891,23.4432396 C52.1958708,24.4107987 52.9730262,25.0738358 54.0608242,25.0738358 C54.6557652,25.0738358 55.3165669,24.8567829 55.9894429,24.4745107 L55.9894429,25.8373003 C55.2518039,26.1688189 54.5141649,26.3340382 53.7886003,26.3340382 C51.8336373,26.3340382 50.4615409,24.9334533 50.4615409,22.9465017 C50.4615409,21.0232621 51.8083908,19.6604724 53.6590744,19.6604724 C55.3549856,19.6604724 56.5075465,20.9725084 56.5075465,22.8449944 C56.5075465,23.0231721 56.5075465,23.2261867 56.4812023,23.4432396 L52.0926891,23.4432396 Z M53.5943114,20.9217548 C52.7919095,20.9217548 52.1706242,21.5070416 52.0926891,22.3860517 L54.914817,22.3860517 C54.8632262,21.52 54.3319505,20.9217548 53.5943114,20.9217548 L53.5943114,20.9217548 Z M47.7294226,21.9271091 L47.7294226,26.1817773 L46.0719301,26.1817773 L46.0719301,19.8127334 L47.7294226,19.8127334 L47.7294226,20.4498538 C48.1948377,19.9401575 48.7645321,19.6604724 49.3210544,19.6604724 C49.5032688,19.6604724 49.6843855,19.6734308 49.8655023,19.7241845 L49.8655023,21.1766029 C49.6843855,21.1247694 49.4769246,21.0999325 49.2826357,21.0999325 C48.7392855,21.0999325 48.156419,21.3925759 47.7294226,21.9271091 L47.7294226,21.9271091 Z M40.3354695,23.4432396 C40.4397488,24.4107987 41.2158066,25.0738358 42.3036046,25.0738358 C42.8996433,25.0738358 43.5593472,24.8567829 44.233321,24.4745107 L44.233321,25.8373003 C43.4945843,26.1688189 42.7569452,26.3340382 42.0313807,26.3340382 C40.0764177,26.3340382 38.7043213,24.9334533 38.7043213,22.9465017 C38.7043213,21.0232621 40.0511711,19.6604724 41.9018548,19.6604724 C43.5988636,19.6604724 44.7503269,20.9725084 44.7503269,22.8449944 C44.7503269,23.0231721 44.7503269,23.2261867 44.7250803,23.4432396 L40.3354695,23.4432396 Z M41.8370918,20.9217548 C41.0346898,20.9217548 40.4134046,21.5070416 40.3354695,22.3860517 L43.1586951,22.3860517 C43.1060066,21.52 42.5758285,20.9217548 41.8370918,20.9217548 Z M34.547418,26.1817773 L33.2269125,21.8515186 L31.919579,26.1817773 L30.4300312,26.1817773 L28.203942,19.8127334 L29.8603367,19.8127334 L31.1687679,24.144072 L32.4761013,19.8127334 L33.9777236,19.8127334 L35.2850571,24.144072 L36.5934882,19.8127334 L38.249883,19.8127334 L36.0358682,26.1817773 L34.547418,26.1817773 Z M24.4224443,26.3340382 C22.4674813,26.3340382 21.0822128,24.9464117 21.0822128,22.9972553 C21.0822128,21.0362205 22.4674813,19.6604724 24.4224443,19.6604724 C26.3774072,19.6604724 27.7495036,21.0362205 27.7495036,22.9972553 C27.7495036,24.9464117 26.3774072,26.3340382 24.4224443,26.3340382 Z M24.4224443,21.0232621 C23.451,21.0232621 22.7781239,21.8256018 22.7781239,22.9972553 C22.7781239,24.1689089 23.451,24.9712486 24.4224443,24.9712486 C25.3807164,24.9712486 26.0535925,24.1689089 26.0535925,22.9972553 C26.0535925,21.8256018 25.3807164,21.0232621 24.4224443,21.0232621 Z M17.1459426,23.0361305 L15.6563948,23.0361305 L15.6563948,26.1817773 L14,26.1817773 L14,17.4186727 L17.1459426,17.4186727 C18.9582076,17.4186727 20.2523689,18.5773678 20.2523689,20.2338808 C20.2523689,21.8893138 18.9582076,23.0361305 17.1459426,23.0361305 Z M16.9121374,18.743667 L15.6563948,18.743667 L15.6563948,21.7111361 L16.9121374,21.7111361 C17.8704095,21.7111361 18.5432856,21.1128909 18.5432856,20.2338808 C18.5432856,19.3419123 17.8704095,18.743667 16.9121374,18.743667 L16.9121374,18.743667 Z M149.945116,23.8341507 L141.986957,23.8341507 C142.168074,25.7087964 143.564319,26.2606074 145.148267,26.2606074 C146.76295,26.2606074 148.03406,25.9269291 149.142714,25.376198 L149.142714,28.5985152 C148.037353,29.2 146.579638,29.6351856 144.635652,29.6351856 C140.676331,29.6351856 137.901403,27.1957705 137.901403,22.3720135 C137.901403,18.2987627 140.254823,15.0634871 144.123037,15.0634871 C147.984665,15.0634871 150,18.2976828 150,22.3936108 C150,22.7802025 149.963777,23.6181777 149.945116,23.8341507 Z M144.096692,18.3246794 C143.080243,18.3246794 141.950734,19.0795051 141.950734,20.8817998 L146.153739,20.8817998 C146.153739,19.0816648 145.095579,18.3246794 144.096692,18.3246794 Z M131.453647,29.6351856 C130.031058,29.6351856 129.161698,29.0444994 128.577733,28.6233521 L128.568952,33.1490664 L124.504253,34 L124.502058,15.3302137 L128.082681,15.3302137 L128.293435,16.3182902 C128.856543,15.8010349 129.885067,15.0634871 131.478894,15.0634871 C134.333952,15.0634871 137.023261,17.5936108 137.023261,22.2499888 C137.023261,27.3329134 134.362492,29.6351856 131.453647,29.6351856 L131.453647,29.6351856 Z M130.50745,18.6065242 C129.573326,18.6065242 128.989362,18.9423622 128.565659,19.3991451 L128.589808,25.3427222 C128.983874,25.7627897 129.553568,26.1018673 130.50745,26.1018673 C132.01017,26.1018673 133.017837,24.4917885 133.017837,22.3385377 C133.017837,20.2457593 131.994802,18.6065242 130.50745,18.6065242 Z M118.760109,15.3302137 L122.841273,15.3302137 L122.841273,29.3490214 L118.760109,29.3490214 L118.760109,15.3302137 Z M118.760109,10.8541732 L122.841273,10 L122.841273,13.2579528 L118.760109,14.1110461 L118.760109,10.8541732 Z M114.543931,19.8451294 L114.543931,29.3490214 L110.480331,29.3490214 L110.480331,15.3302137 L113.995093,15.3302137 L114.250852,16.5126659 C115.20144,14.7913611 117.102617,15.1401575 117.643771,15.3312936 L117.643771,19.0071541 C117.126766,18.8430146 115.504399,18.6032846 114.543931,19.8451294 Z M105.963389,24.4302362 C105.963389,26.7875816 108.528661,26.0543532 109.050057,25.8491789 L109.050057,29.1049719 C108.507805,29.3976153 107.525384,29.6351856 106.196097,29.6351856 C103.783402,29.6351856 101.973333,27.8868841 101.973333,25.5187402 L101.990896,12.6867042 L105.960096,11.8573678 L105.963389,15.3302137 L109.051155,15.3302137 L109.051155,18.7404274 L105.963389,18.7404274 L105.963389,24.4302362 Z M101.030428,25.1127109 C101.030428,27.991631 98.7011574,29.6351856 95.3203119,29.6351856 C93.9185782,29.6351856 92.3862209,29.3673791 90.8747195,28.7270191 L90.8747195,24.9086164 C92.2391322,25.6386052 93.9778527,26.1860967 95.3247026,26.1860967 C96.2313839,26.1860967 96.8845018,25.9463667 96.8845018,25.207739 C96.8845018,23.2985377 90.7034819,24.0177278 90.7034819,19.5892013 C90.7034819,16.7577953 92.9021292,15.0634871 96.1995512,15.0634871 C97.5464011,15.0634871 98.8932509,15.2675816 100.240101,15.7956355 L100.240101,19.5622047 C99.0030186,18.9056468 97.4333403,18.5330934 96.1962582,18.5330934 C95.3444608,18.5330934 94.8153804,18.7749831 94.8153804,19.400225 C94.8153804,21.1992801 101.030428,20.344027 101.030428,25.1127109 L101.030428,25.1127109 Z" id="Shape" fill="#FFFFFF"></path>
            </g>
        </g>
    </g>
</svg>