<svg xmlns="http://www.w3.org/2000/svg" width="24.82" height="17.624" viewBox="0 0 24.82 17.624">
  <g id="TICK_Copy_4" data-name="TICK Copy 4" transform="translate(0 -0.788)">
    <path id="Rectangle" d="M15.136,1.376a2.33,2.33,0,0,1,3.1,0l.2.178a2.33,2.33,0,0,1,0,3.483L5.256,16.749a2.33,2.33,0,0,1-3.1,0l-.2-.178a2.33,2.33,0,0,1,0-3.483Z" transform="translate(5.606 0)" fill="#15c324"/>
    <path id="Rectangle-2" data-name="Rectangle" d="M.77.681a2.853,2.853,0,0,1,3.7,0L9.761,5.4a2.156,2.156,0,0,1,0,3.3,2.853,2.853,0,0,1-3.7,0L.766,3.98A2.156,2.156,0,0,1,.77.681Z" transform="translate(0 9.027)" fill="#15c324"/>
  </g>
</svg>
