<?xml version="1.0" encoding="UTF-8"?>
<svg width="17px" height="27px" viewBox="0 0 17 27" version="1.1" xmlns="http://www.w3.org/2000/svg" xmlns:xlink="http://www.w3.org/1999/xlink">
    <title>0AF7DB09-F2F5-44D1-9997-1AF42D750721</title>
    <g id="High-Fidelity-Frontend" stroke="none" stroke-width="1" fill="none" fill-rule="evenodd">
        <g id="TTC-Hub---Course-Category-Page-(Aviation-Security)" transform="translate(-232.000000, -4395.000000)" fill="#0E63E8" fill-rule="nonzero">
            <g id="FAQS" transform="translate(0.000000, 3383.000000)">
                <g id="Nav-Collapsed-Copy" transform="translate(199.000000, 975.000000)">
                    <g id="Nav-Arrow-Copy-4" transform="translate(33.500000, 37.500000)">
                        <g id="Arrow-Right" transform="translate(7.568627, 12.750000) rotate(-90.000000) translate(-7.568627, -12.750000) translate(-4.931373, 5.250000)">
                            <path d="M0.372268913,6.40896367 L13.8946781,5.78851548 C14.5759738,5.75725561 15.1536143,6.28421382 15.1848742,6.96550958 C15.1866046,7.00322374 15.1866046,7.04099742 15.1848742,7.07871158 C15.1497252,7.84476873 14.5366456,8.45784834 13.7705884,8.49299731 L0.248179275,9.1134455 C-0.433116486,9.14470537 -1.01075695,8.61774716 -1.04201682,7.9364514 C-1.04374726,7.89873724 -1.04374726,7.86096356 -1.04201682,7.8232494 C-1.00686785,7.05719225 -0.393788238,6.44411264 0.372268913,6.40896367 Z" id="Rectangle" transform="translate(7.071429, 7.450980) rotate(45.000000) translate(-7.071429, -7.450980) "></path>
                            <path d="M10.6217877,6.55726906 L24.5561283,5.91950728 C25.3029697,5.88532504 25.8805823,6.4630035 25.8463151,7.20984143 C25.812053,7.9565692 25.1789295,8.58968678 24.4321942,8.62394917 C24.4321428,8.62395153 24.4320914,8.62395389 24.43204,8.62395625 L10.4976994,9.26171803 C9.75085794,9.29590028 9.17324542,8.71822178 9.2075126,7.97138387 C9.24177471,7.22465613 9.87489821,6.59153851 10.6216335,6.55727612 C10.6216849,6.55727377 10.6217363,6.55727141 10.6217877,6.55726906 Z" id="Rectangle" transform="translate(17.526914, 7.590613) scale(-1, 1) rotate(45.000000) translate(-17.526914, -7.590613) "></path>
                        </g>
                    </g>
                </g>
            </g>
        </g>
    </g>
</svg>