<?xml version="1.0" encoding="UTF-8"?>
<svg width="5px" height="5px" viewBox="-13 -15 50 50" version="1.1" xmlns="http://www.w3.org/2000/svg" xmlns:xlink="http://www.w3.org/1999/xlink">
    <title>cart</title>
    <g id="Symbols" stroke="none" stroke-width="1" fill="none" fill-rule="evenodd">
        <g id="HEADER-Basket-Active" transform="translate(-1053.000000, -38.000000)">
            <g id="HEADER">
                <g id="Rectangle">
                    <use fill="black" fill-opacity="1" filter="url(#filter-2)" xlink:href="#path-1"></use>
                    <use fill="#FFFFFF" fill-rule="evenodd" xlink:href="#path-1"></use>
                </g>
            </g>
            <g id="MiniiCart" transform="translate(1043.000000, 18.000000)">
                <circle id="Oval" stroke="#E9EBEB" stroke-width="1.06800003" fill="#F7F9FB" cx="21.3600005" cy="30.9720007" r="21.3600005"></circle>
                <g id="cart" transform="translate(10.680000, 20.292000)" fill="#000000" fill-rule="nonzero">
                    <path d="M7.47607688,16.0200004 C6.29630361,16.0200004 5.34000013,16.9763039 5.34000013,18.1560771 C5.34000013,19.335697 6.29630361,20.2920005 7.47607688,20.2920005 C8.65569678,20.2920005 9.61200023,19.335697 9.61200023,18.1560771 C9.61077321,16.9769174 8.65523664,16.0212274 7.47607688,16.0200004 L7.47607688,16.0200004 Z M7.47607688,19.506712 C6.73005281,19.506712 6.12528863,18.9019478 6.12528863,18.1560771 C6.12528863,17.4100531 6.73005281,16.8052889 7.47607688,16.8052889 C8.22194755,16.8052889 8.82671173,17.4100531 8.82671173,18.1560771 C8.82671173,18.9019478 8.22194755,19.506712 7.47607688,19.506712 L7.47607688,19.506712 Z" id="Shape"></path>
                    <path d="M20.8968171,4.36562063 L4.38443858,4.36562063 L4.04777564,2.48707632 C3.84026118,1.33067086 2.93092403,0.426085399 1.77041404,0.221606829 L0.549805208,0.00729583299 C0.295344268,-0.0378606071 0.0525742837,0.131293949 0.00727183147,0.384752678 C-0.0378479613,0.638393523 0.131670892,0.880381048 0.386131832,0.925537488 L1.61130744,1.13984848 C2.38437186,1.27641032 2.98956146,1.87964937 3.12656487,2.65022217 L4.78193107,11.9588217 C4.97738925,13.0726199 5.94828653,13.8850716 7.08267457,13.8839898 L16.9030771,13.8839898 C17.9348039,13.8870745 18.8459678,13.2139158 19.1431738,12.2292141 L21.3410734,4.96685681 C21.381809,4.82519666 21.3560524,4.67261162 21.2709277,4.55207303 C21.1819668,4.43535821 21.0436847,4.36653108 20.8968171,4.36562063 Z M18.2499117,11.9540876 C18.0734514,12.5454913 17.5267165,12.9500784 16.9078266,12.9470006 L7.08742404,12.9470006 C6.40624318,12.9488038 5.82315678,12.4602767 5.7078913,11.7909417 L4.55286143,5.2931485 L20.2700723,5.2931485 L18.2499117,11.9540876 Z" id="Shape"></path>
                    <path d="M16.0200771,16.0200004 C14.8403038,16.0200004 13.8840003,16.9763039 13.8840003,18.1560771 C13.8840003,19.335697 14.8403038,20.2920005 16.0200771,20.2920005 C17.199697,20.2920005 18.1560004,19.335697 18.1560004,18.1560771 C18.1547734,16.9769174 17.1992368,16.0212274 16.0200771,16.0200004 L16.0200771,16.0200004 Z M16.0200771,19.506712 C15.274053,19.506712 14.6692888,18.9019478 14.6692888,18.1560771 C14.6692888,17.4100531 15.274053,16.8052889 16.0200771,16.8052889 C16.7659478,16.8052889 17.3707119,17.4100531 17.3707119,18.1560771 C17.3707119,18.9019478 16.7659478,19.506712 16.0200771,19.506712 L16.0200771,19.506712 Z" id="Shape"></path>
                </g>
            </g>
        </g>
    </g>
</svg>