<?xml version="1.0" encoding="UTF-8"?>
<svg width="17px" height="25px" viewBox="0 0 17 25" version="1.1" xmlns="http://www.w3.org/2000/svg" xmlns:xlink="http://www.w3.org/1999/xlink">
    <!-- Generator: Sketch 64 (93537) - https://sketch.com -->
    <title>certificates</title>
    <desc>Created with Sketch.</desc>
    <g id="Symbols" stroke="none" stroke-width="1" fill="none" fill-rule="evenodd">
        <g id="Quick-Overview-Stats" transform="translate(-234.000000, -82.000000)" fill="#15C324" fill-rule="nonzero">
            <g id="certificates">
                <g transform="translate(235.000000, 83.000000)">
                    <path d="M15.5037962,4.60700763 C15.5036165,4.60197638 15.5034369,4.59694513 15.5030775,4.59191388 C15.50164,4.57196856 15.4996634,4.55238264 15.4957103,4.53297639 C15.4957103,4.53297639 15.4957103,4.53297639 15.4957103,4.53279666 C15.4917572,4.51339046 15.4861869,4.49416389 15.4798978,4.47547639 C15.4782806,4.47080449 15.4766634,4.46613264 15.4748665,4.46146074 C15.4682181,4.44367167 15.4606712,4.42624199 15.4520462,4.40935139 C15.4515072,4.40845297 15.4511478,4.40755449 15.4506087,4.40665607 C15.441265,4.38904667 15.4304837,4.37233574 15.418804,4.35598417 C15.415929,4.35185139 15.4128744,4.34789825 15.4098197,4.34376547 C15.3974212,4.32759357 15.3844837,4.31196075 15.369929,4.29740607 L11.2072886,0.134765642 C11.1927339,0.120210921 11.1771011,0.107273422 11.1609292,0.0948749961 C11.1567964,0.0918203202 11.1526636,0.0885859223 11.1485308,0.0857109224 C11.1321792,0.0740312469 11.115648,0.0632499974 11.0982183,0.0540859238 C11.0969605,0.0533671738 11.0957027,0.0530078218 11.0946245,0.0522890718 C11.0780933,0.0436640722 11.0608433,0.0362968505 11.0434136,0.0296484248 C11.038562,0.0278515728 11.0338902,0.0262343509 11.0288589,0.024617175 C11.0101714,0.0183281472 10.9913042,0.0127578235 10.9717183,0.00880467563 C10.9715386,0.00880467563 10.9713589,0.00880467563 10.9713589,0.00880467563 C10.9521324,0.00503124979 10.9325464,0.00287499988 10.9127808,0.00143749994 C10.9077495,0.00125781475 10.9027183,0.000898435163 10.897687,0.00071874997 C10.8924761,0.000539064778 10.8872652,0 10.8820542,0 L0.459999981,0 C0.205921843,0 -1.30739858e-15,0.205921843 -1.30739858e-15,0.459999981 L-1.30739858e-15,20.1490773 C-1.30739858e-15,20.4031554 0.205921843,20.6090773 0.459999981,20.6090773 L7.38551534,20.6090773 L7.38551534,23.091999 C7.38551534,23.2592881 7.47643719,23.41346 7.62288251,23.494499 C7.7695075,23.5755381 7.94829652,23.5706865 8.09006999,23.4817412 L9.84202302,22.3825928 L11.5939761,23.4817412 C11.6685464,23.52846 11.7535386,23.5520353 11.8385308,23.5520353 C11.9150777,23.5520353 11.9918042,23.5329522 12.0611636,23.4946787 C12.2076088,23.4136397 12.2985307,23.2594678 12.2985307,23.091999 L12.2985307,20.6090773 L15.044515,20.6090773 C15.2985931,20.6090773 15.504515,20.4031554 15.504515,20.1490773 L15.504515,4.62264046 C15.504515,4.61742948 15.5039759,4.61221856 15.5037962,4.60700763 L15.5037962,4.60700763 Z M11.3420542,1.57064836 L13.9340463,4.16264048 L11.3420542,4.16264048 L11.3420542,1.57064836 Z M7.15857003,14.2080697 C7.12622628,14.1202026 7.07357785,13.9766322 7.07232003,13.9178744 C7.10825753,13.8733119 7.23296063,13.7944291 7.30932784,13.7462729 C7.47320284,13.6427729 7.65899968,13.5252573 7.79376532,13.3416166 C7.92978875,13.1559995 7.98513249,12.9416323 8.03400749,12.752601 C8.05539031,12.6699448 8.08989031,12.536437 8.11935902,12.4859448 C8.13553091,12.4825307 8.16949184,12.4776792 8.23328091,12.4776792 C8.28449183,12.4776792 8.34181215,12.4805542 8.4025465,12.4836088 C8.4722653,12.4870229 8.54414029,12.4906167 8.61924964,12.4906167 C8.78492149,12.4906167 8.91860898,12.4719292 9.03989805,12.4314995 C9.25174962,12.361062 9.42119493,12.2246792 9.57069493,12.1042886 C9.65335117,12.0378042 9.79171052,11.9263979 9.83986677,11.9195698 C9.89251524,11.9263979 10.0306949,12.0378042 10.1133512,12.1042886 C10.2628511,12.2246792 10.4324761,12.361062 10.6443277,12.4314995 C10.7656167,12.4719292 10.8991245,12.4906167 11.0649761,12.4906167 C11.1399058,12.4906167 11.2119605,12.4870229 11.2814995,12.4836088 C11.3422339,12.4805542 11.3995542,12.4776792 11.4509448,12.4776792 C11.5147339,12.4776792 11.5485152,12.4823511 11.5648667,12.4859448 C11.5943354,12.536437 11.6288354,12.6699448 11.6500386,12.752601 C11.6989136,12.9416323 11.754437,13.1559995 11.8904604,13.3416166 C12.0250464,13.5252573 12.2108432,13.6425932 12.3748979,13.7462729 C12.4510854,13.7946088 12.5757886,13.8733119 12.6117261,13.9178744 C12.6104682,13.9766322 12.5578198,14.1202026 12.5256557,14.2080697 C12.4571948,14.3944057 12.3797495,14.6057181 12.3797495,14.839851 C12.3797495,15.0739837 12.4571948,15.2852962 12.5254761,15.4718119 C12.5578198,15.559679 12.6104682,15.7032493 12.6117261,15.7620072 C12.5757886,15.8065697 12.4510854,15.8852728 12.3748979,15.9336087 C12.2108432,16.0371087 12.0250464,16.1546243 11.8904604,16.338265 C11.754437,16.5238821 11.6989136,16.7382493 11.6500386,16.9272805 C11.6288354,17.0097571 11.5941558,17.1434446 11.5648667,17.1939368 C11.5485152,17.1973509 11.5147339,17.2022024 11.4509448,17.2022024 C11.3995542,17.2022024 11.3422339,17.1993274 11.2814995,17.1962727 C11.2119605,17.1928586 11.1399058,17.1892649 11.0649761,17.1892649 C10.8991245,17.1892649 10.7656167,17.2079524 10.6443277,17.2483821 C10.4324761,17.3188196 10.2628511,17.4553821 10.1133512,17.575593 C10.0319527,17.6413586 9.89610894,17.7504289 9.84202302,17.7601321 C9.78793709,17.7504289 9.65227303,17.6413586 9.5708746,17.575593 C9.42119493,17.4553821 9.25174962,17.3188196 9.03989805,17.2483821 C8.91860898,17.2079524 8.78492149,17.1892649 8.61924964,17.1892649 C8.54431997,17.1892649 8.4722653,17.1928586 8.4025465,17.1962727 C8.34199183,17.1993274 8.28467151,17.2022024 8.23328091,17.2022024 C8.16949184,17.2022024 8.13571059,17.1973509 8.11935902,17.1939368 C8.08989031,17.1434446 8.05539031,17.0099368 8.03400749,16.9272805 C7.98531217,16.7382493 7.92978875,16.5238821 7.79376532,16.338265 C7.65917936,16.1546243 7.47338251,16.0371087 7.30932784,15.9336087 C7.23314035,15.8854525 7.10843721,15.8065697 7.07249971,15.7620072 C7.07375753,15.703429 7.12640595,15.559679 7.15857003,15.4718119 C7.22703095,15.2854759 7.30447627,15.0741634 7.30447627,14.8400306 C7.30447627,14.6057181 7.22685127,14.3944057 7.15857003,14.2080697 L7.15857003,14.2080697 Z M11.3785308,22.2604053 L10.0865777,21.449835 C9.93707774,21.3562179 9.74696835,21.3562179 9.59746835,21.449835 L8.3055153,22.2604053 L8.3055153,18.1207649 C8.3543903,18.1193274 8.40236683,18.1175305 8.4489059,18.1151946 C8.50981997,18.1119602 8.56731997,18.1090852 8.61924964,18.1090852 C8.70082779,18.1090852 8.73568714,18.1166321 8.74916371,18.1211242 C8.80396838,18.1394524 8.90926528,18.2242649 8.99389805,18.2923664 C9.20862462,18.4652258 9.47581993,18.6803117 9.84202302,18.6803117 C10.2082262,18.6803117 10.4754214,18.4652258 10.690148,18.2923664 C10.7747808,18.2242649 10.8800777,18.1394524 10.9347027,18.1213039 C10.9483589,18.1168117 10.9832183,18.1092649 11.0647964,18.1092649 C11.1167261,18.1092649 11.1742261,18.1121399 11.2351402,18.1151946 C11.2816792,18.1175305 11.3296558,18.1195071 11.3783511,18.1207649 L11.3783511,22.2604053 L11.3785308,22.2604053 Z M12.2985307,19.6890773 L12.2985307,17.7500696 C12.4352729,17.5642727 12.4924136,17.3443352 12.5407495,17.1574602 C12.5660854,17.0593509 12.6007651,16.9251243 12.6323901,16.882179 C12.6638354,16.839054 12.780812,16.7652025 12.8661635,16.7112962 C13.0925698,16.568265 13.3743198,16.3901946 13.4862651,16.0534603 C13.5969526,15.7212181 13.4817729,15.407304 13.3892338,15.1550228 C13.3471869,15.0405619 13.2995698,14.9106478 13.2995698,14.839851 C13.2995698,14.7690541 13.3471869,14.6393197 13.3892338,14.5248587 C13.4817729,14.2725776 13.5969526,13.9584838 13.4862651,13.6262416 C13.3743198,13.2896869 13.0925698,13.1116166 12.8661635,12.9685854 C12.780812,12.9146791 12.6638354,12.8406479 12.6323901,12.7978823 C12.6007651,12.7547573 12.5660854,12.6205307 12.5407495,12.5224213 C12.4746245,12.2663667 12.3923276,11.9476011 12.1105776,11.7409604 C11.8863277,11.5767261 11.6266792,11.5576792 11.4507652,11.5576792 C11.3763745,11.5576792 11.3044995,11.5612729 11.2351402,11.5648667 C11.1742261,11.5679214 11.1167261,11.5707964 11.0649761,11.5707964 C10.9832183,11.5707964 10.9483589,11.5632495 10.9348824,11.5587573 C10.8802574,11.5406089 10.7749605,11.4557964 10.6903277,11.3875152 C10.4754214,11.2148355 10.2082262,10.9997495 9.84202302,10.9997495 C9.47599961,10.9997495 9.20862462,11.2148355 8.99389805,11.3875152 C8.90926528,11.4556167 8.80396838,11.5406089 8.74934339,11.5587573 C8.73586681,11.5632495 8.70082779,11.5707964 8.61924964,11.5707964 C8.56749964,11.5707964 8.50981997,11.5679214 8.4489059,11.564687 C8.3795465,11.5612729 8.30785123,11.5576792 8.23328091,11.5576792 C8.05754652,11.5576792 7.7978981,11.5767261 7.57382783,11.7409604 C7.29189812,11.9476011 7.20942155,12.2663667 7.14329656,12.5224213 C7.11796063,12.6205307 7.08328096,12.7547573 7.05183563,12.7977026 C7.02021063,12.8406479 6.90323407,12.9146791 6.81788254,12.9685854 C6.5914763,13.1116166 6.30990599,13.2896869 6.19778099,13.6262416 C6.0870935,13.9586635 6.20227317,14.2725776 6.29481224,14.5248587 C6.33685909,14.6393197 6.38447631,14.7690541 6.38447631,14.839851 C6.38447631,14.9106478 6.33685909,15.0405619 6.29481224,15.1550228 C6.20227317,15.407304 6.0870935,15.7212181 6.19778099,16.05364 C6.30990599,16.3901946 6.59165598,16.568265 6.81788254,16.7112962 C6.90341379,16.7652025 7.02021063,16.8392337 7.05183563,16.882179 C7.08328096,16.9251243 7.11796063,17.0593509 7.14329656,17.1574602 C7.19163253,17.3443352 7.24895285,17.5644524 7.38569502,17.7500696 L7.38569502,19.6890773 L0.919999962,19.6890773 L0.919999962,0.919999962 L10.4220542,0.919999962 L10.4220542,4.62264046 C10.4220542,4.87671855 10.6279761,5.08264044 10.8820542,5.08264044 L14.584515,5.08264044 L14.584515,19.6890773 L12.2985307,19.6890773 Z" id="Shape" stroke="#15C324" stroke-width="0.5"></path>
                    <path d="M2.70771081,5.08264044 L8.63416372,5.08264044 C8.88806213,5.08264044 9.0941637,4.87671855 9.0941637,4.62264046 C9.0941637,4.36856232 8.88806213,4.16264048 8.63416372,4.16264048 L2.70771081,4.16264048 C2.45363272,4.16264048 2.24771083,4.36856232 2.24771083,4.62264046 C2.24771083,4.87671855 2.4538124,5.08264044 2.70771081,5.08264044 Z" id="Path"></path>
                    <path d="M12.8481948,6.48456223 L2.70771081,6.48456223 C2.45363272,6.48456223 2.24771083,6.69048407 2.24771083,6.94456221 C2.24771083,7.19864035 2.45363272,7.40456219 2.70771081,7.40456219 L12.8481948,7.40456219 C13.1022729,7.40456219 13.3081948,7.19864035 13.3081948,6.94456221 C13.3081948,6.69048407 13.1022729,6.48456223 12.8481948,6.48456223 Z" id="Path"></path>
                    <path d="M11.0081949,8.80648399 L2.70771081,8.80648399 C2.45363272,8.80648399 2.24771083,9.01258555 2.24771083,9.26648397 C2.24771083,9.52056211 2.45363272,9.72648395 2.70771081,9.72648395 L11.0081949,9.72648395 C11.262273,9.72648395 11.4681948,9.52056211 11.4681948,9.26648397 C11.4681948,9.01258555 11.262273,8.80648399 11.0081949,8.80648399 Z" id="Path"></path>
                    <path d="M12.8481948,8.80648399 C12.5948354,8.80648399 12.3881948,9.01312463 12.3881948,9.26648397 C12.3881948,9.51984336 12.5948354,9.72648395 12.8481948,9.72648395 C13.1017338,9.72648395 13.3081948,9.51984336 13.3081948,9.26648397 C13.3081948,9.01312463 13.1017338,8.80648399 12.8481948,8.80648399 Z" id="Path"></path>
                </g>
            </g>
        </g>
    </g>
</svg>