<?xml version="1.0" encoding="UTF-8"?>
<svg width="14px" height="15px" viewBox="0 0 14 15" version="1.1" xmlns="http://www.w3.org/2000/svg" xmlns:xlink="http://www.w3.org/1999/xlink">
    <!-- Generator: Sketch 64 (93537) - https://sketch.com -->
    <title>Upload Up</title>
    <desc>Created with Sketch.</desc>
    <g id="Hifi---Company-Managers" stroke="none" stroke-width="1" fill="none" fill-rule="evenodd">
        <g id="05-Company-Manager-&gt;-All-Delegates" transform="translate(-1373.000000, -246.000000)" fill-rule="nonzero">
            <g id="Upload-Up" transform="translate(1372.000000, 246.000000)">
                <g transform="translate(7.798285, 7.503506) scale(-1, 1) rotate(-90.000000) translate(-7.798285, -7.503506) translate(0.298285, 0.503506)">
                    <g id="Burger-Menu" transform="translate(9.003506, -0.001715)" fill="#0E63E8">
                        <g id="Group">
                            <rect id="Rectangle" x="0" y="0" width="5.60000008" height="1.60000002" rx="0.800000012"></rect>
                            <rect id="Rectangle-Copy-6" transform="translate(4.800000, 6.800000) rotate(90.000000) translate(-4.800000, -6.800000) " x="-2.00000003" y="6.00000009" width="13.6000002" height="1.60000002" rx="0.800000012"></rect>
                            <rect id="Rectangle-Copy" x="0" y="12.0000002" width="5.60000008" height="1.60000002" rx="0.800000012"></rect>
                        </g>
                    </g>
                    <g id="Arrow-Blazing--Right" transform="translate(5.203506, 6.798285) scale(-1, 1) rotate(-90.000000) translate(-5.203506, -6.798285) translate(0.203506, 1.798285)" fill="#15C324">
                        <path d="M1.00000001,4.20000006 L9.00000013,4.20000006 C9.44182794,4.20000006 9.80000015,4.55817227 9.80000015,5.00000007 C9.80000015,5.44182788 9.44182794,5.80000009 9.00000013,5.80000009 L1.00000001,5.80000009 C0.558172208,5.80000009 0.200000003,5.44182788 0.200000003,5.00000007 C0.200000003,4.55817227 0.558172208,4.20000006 1.00000001,4.20000006 Z" id="Rectangle" transform="translate(5.000000, 5.000000) scale(-1, 1) rotate(90.000000) translate(-5.000000, -5.000000) "></path>
                        <path d="M0.599438464,6.19957899 L5.39943858,6.20042127 C5.84128906,6.20049883 6.19943855,6.55871116 6.19943855,7.00056168 C6.19943855,7.44231197 5.84132918,7.80042134 5.3995789,7.80042134 C5.39953214,7.80042134 5.39948534,7.80042134 5.39943858,7.80042134 L0.599438464,7.79957906 C0.157587958,7.7995015 -0.200561537,7.44128917 -0.200561537,6.99943864 C-0.200561537,6.55768836 0.157547826,6.19957899 0.599298112,6.19957899 C0.599344896,6.19957899 0.59939168,6.19957899 0.599438464,6.19957899 Z" id="Rectangle" transform="translate(2.999439, 7.000000) scale(-1, 1) rotate(135.000000) translate(-2.999439, -7.000000) "></path>
                        <path d="M4.5994384,6.19957899 L9.39943851,6.20042127 C9.841289,6.20049883 10.1994385,6.55871116 10.1994385,7.00056169 C10.1994385,7.44231197 9.84132912,7.80042134 9.39957883,7.80042134 C9.39953207,7.80042134 9.39948527,7.80042134 9.39943851,7.80042134 L4.5994384,7.79957906 C4.15758792,7.7995015 3.7994384,7.44128917 3.7994384,6.99943865 C3.7994384,6.55768836 4.15754776,6.19957899 4.59929804,6.19957899 C4.59934484,6.19957899 4.5993916,6.19957899 4.5994384,6.19957899 Z" id="Rectangle" transform="translate(6.999438, 7.000000) scale(-1, 1) rotate(45.000000) translate(-6.999438, -7.000000) "></path>
                    </g>
                </g>
            </g>
        </g>
    </g>
</svg>