<?xml version="1.0" encoding="UTF-8"?>
<svg width="28px" height="17px" viewBox="0 0 28 17" version="1.1" xmlns="http://www.w3.org/2000/svg" xmlns:xlink="http://www.w3.org/1999/xlink">
    <!-- Generator: Sketch 64 (93537) - https://sketch.com -->
    <title>employees</title>
    <desc>Created with Sketch.</desc>
    <g id="Symbols" stroke="none" stroke-width="1" fill="none" fill-rule="evenodd">
        <g id="Frame-Side-Bar-Nav" transform="translate(-64.000000, -231.000000)" fill="#ACD3E2" fill-rule="nonzero">
            <g id="employees">
                <g transform="translate(64.000000, 231.000000)">
                    <path d="M27.0873131,15.1935716 L26.276633,15.1935716 L26.7223704,10.9186158 C26.7435825,10.7151442 26.6766465,10.5123256 26.5382492,10.3605382 C26.3997576,10.2086576 26.2028148,10.1219886 25.9960673,10.1219886 L25.9213064,10.1219886 C25.8818047,9.75712044 25.8430572,9.43302126 25.8094949,9.21154416 C25.6322559,8.04109273 24.7252256,7.08875986 23.4988822,6.7852784 L22.5955286,6.56184215 C22.5244444,6.46285849 22.5011582,6.19016365 22.5296296,5.99714085 C23.2920404,5.25341067 23.7525791,4.09583365 23.7525791,3.0125177 C23.7525791,1.23874175 22.5007811,0 20.7083098,0 C18.9158384,0 17.6640404,1.23874175 17.6640404,3.0125177 C17.6640404,4.09583365 18.1245791,5.25341067 18.8869899,5.99714085 C18.9155556,6.19025694 18.8922694,6.46304508 18.8211852,6.56193544 L17.9177374,6.78546498 C16.6913939,7.08885316 15.7844579,8.04118603 15.6071246,9.21173075 C15.5735623,9.43320785 15.5349091,9.75749361 15.4954074,10.1221751 L15.4207407,10.1221751 C15.2142761,10.1221751 15.0175219,10.2085643 14.8791246,10.3601651 C14.7407273,10.5116726 14.6736027,10.7141179 14.6942492,10.9173097 L15.1306532,15.1937582 L12.7235017,15.1937582 L13.1692391,10.9188023 C13.1904512,10.7153308 13.1235152,10.5125122 12.9851178,10.3607248 C12.8466263,10.2088442 12.6496835,10.1221751 12.442936,10.1221751 L12.3681751,10.1221751 C12.3286734,9.75740031 12.2899259,9.43320785 12.2563636,9.21173075 C12.0791246,8.04127932 11.1720943,7.08894645 9.94575084,6.78546498 L9.04239731,6.56202873 C8.97131313,6.46304508 8.94802694,6.19035023 8.97649832,5.99732744 C9.73890909,5.25359726 10.1994478,4.09602024 10.1994478,3.01270428 C10.1994478,1.23892834 8.94764983,0.000186585593 7.15517845,0.000186585593 C5.36270707,0.000186585593 4.11081481,1.23864846 4.11081481,3.01242441 C4.11081481,4.09574036 4.57135354,5.25331738 5.33376431,5.99704756 C5.36232997,6.19016365 5.33904377,6.46295178 5.2679596,6.56184215 L4.36451178,6.78537169 C3.13816835,7.08875986 2.23123232,8.04109273 2.05389899,9.21163745 C2.0203367,9.43320785 1.9816835,9.75730702 1.94208754,10.1220819 L1.86742088,10.1220819 C1.66095623,10.1220819 1.46420202,10.208471 1.32580471,10.3600718 C1.18740741,10.5115793 1.12028283,10.7140247 1.14092929,10.9172164 L1.57733333,15.1936649 L0.912686869,15.1936649 C0.408686869,15.1936649 0,15.5980891 0,16.0968324 C0,16.5955757 0.408686869,17 0.912686869,17 L27.0873131,17 C27.5913131,17 28,16.5955757 28,16.0968324 C28,15.5980891 27.5913131,15.1935716 27.0873131,15.1935716 Z M7.15508418,1.44491884 C7.92088889,1.44491884 8.73911111,1.85671324 8.73911111,3.01242441 C8.73911111,4.16692276 7.93974411,5.34315835 7.15508418,5.34315835 C6.37042424,5.34315835 5.57105724,4.16692276 5.57105724,3.01242441 C5.57105724,1.85680653 6.38927946,1.44491884 7.15508418,1.44491884 Z M7.84377104,7.38683035 C7.79107071,7.71606063 7.50230303,7.96851094 7.15508418,7.96851094 C6.80786532,7.96851094 6.51909764,7.71606063 6.46639731,7.38683035 C6.60696296,7.18559779 6.69143434,6.96440057 6.74121212,6.75085335 C6.87564983,6.77454973 7.01348148,6.78826377 7.15508418,6.78826377 C7.29668687,6.78826377 7.43451852,6.77454973 7.56895623,6.75085335 C7.61863973,6.96440057 7.70320539,7.18559779 7.84377104,7.38683035 Z M3.49792593,9.42583771 C3.58616835,8.84378396 4.07668687,8.34597359 4.71851852,8.18728255 L5.15548822,8.07915619 C5.47630976,8.86076324 6.25144781,9.41342977 7.1549899,9.41342977 C8.05862626,9.41342977 8.83376431,8.86066995 9.15449158,8.0790629 L9.591367,8.18709596 C10.2332929,8.34597359 10.7238114,8.84369066 10.8119596,9.42565113 C10.8379798,9.59758975 10.8679596,9.84164371 10.899165,10.1218953 L3.41072054,10.1219886 C3.4420202,9.84183029 3.47190572,9.59777634 3.49792593,9.42583771 Z M11.2553401,15.1935716 L3.04502357,15.1935716 L2.67489562,11.567094 L11.6333872,11.5670007 L11.2553401,15.1935716 Z M20.7083098,1.44491884 C21.4741145,1.44491884 22.2923367,1.85671324 22.2923367,3.01242441 C22.2923367,4.16692276 21.4929697,5.34315835 20.7083098,5.34315835 C19.9236498,5.34315835 19.1242828,4.16692276 19.1242828,3.01242441 C19.1242828,1.85680653 19.9425051,1.44491884 20.7083098,1.44491884 Z M21.3969966,7.38683035 C21.3442963,7.71606063 21.0555286,7.96851094 20.7083098,7.96851094 C20.3610909,7.96851094 20.0723232,7.71606063 20.0196229,7.38683035 C20.1601886,7.18559779 20.2446599,6.96440057 20.2944377,6.75085335 C20.4288754,6.77454973 20.5667071,6.78826377 20.7083098,6.78826377 C20.8499125,6.78826377 20.9877441,6.77454973 21.1221818,6.75085335 C21.1718653,6.96440057 21.256431,7.18559779 21.3969966,7.38683035 Z M17.0511515,9.42583771 C17.1393939,8.84378396 17.6299125,8.34597359 18.2717441,8.18728255 L18.7087138,8.07915619 C19.0295354,8.86076324 19.8046734,9.41342977 20.7082155,9.41342977 C21.6118519,9.41342977 22.3869899,8.86066995 22.7077172,8.0790629 L23.1445926,8.18709596 C23.7865185,8.34597359 24.277037,8.84369066 24.3651852,9.42565113 C24.3912054,9.59768305 24.4211852,9.84155042 24.4523906,10.1218953 L16.9638519,10.1219886 C16.9952458,9.841737 17.0251313,9.59786963 17.0511515,9.42583771 Z M24.8086599,15.1935716 L16.5982492,15.1935716 L16.2282155,11.567094 L25.1867071,11.5670007 L24.8086599,15.1935716 Z" id="Shape"></path>
                </g>
            </g>
        </g>
    </g>
</svg>