<?xml version="1.0" encoding="UTF-8"?>
<svg width="22px" height="18px" viewBox="0 0 22 18" version="1.1" xmlns="http://www.w3.org/2000/svg" xmlns:xlink="http://www.w3.org/1999/xlink">
    <!-- Generator: Sketch 64 (93537) - https://sketch.com -->
    <title>open-book (1) copy</title>
    <desc>Created with Sketch.</desc>
    <g id="Symbols" stroke="none" stroke-width="1" fill="none" fill-rule="evenodd">
        <g id="Frame-Side-Bar-Nav" transform="translate(-67.000000, -296.000000)" fill="#ACD3E2" fill-rule="nonzero">
            <g id="open-book-(1)-copy">
                <g transform="translate(67.000000, 296.000000)">
                    <path d="M20.6664476,2.36685595 L19.1674796,2.36678395 L19.1674796,0.815111984 C19.1674796,0.459863991 18.9075596,0.158039997 18.5561996,0.105479998 C18.4948556,0.0962639981 17.0345517,-0.115847998 15.2760957,0.204119996 C13.3157517,0.560807989 11.7523438,1.44043197 10.6919998,2.77019994 C9.63158381,1.44043197 8.06817584,0.560807989 6.10790388,0.204119996 C4.34937591,-0.115775998 2.88907194,0.0962639981 2.82779994,0.105479998 C2.47643995,0.158111997 2.21651996,0.459935991 2.21651996,0.815111984 L2.21651996,2.36678395 L0.717551986,2.36678395 C0.321335994,2.36678395 0,2.68811995 0,3.08440794 L0,16.6063677 C0,16.8387117 0.112463998,17.0566557 0.301895994,17.1912957 C0.49132799,17.3259357 0.734183985,17.3604957 0.953567981,17.2840317 C1.00742398,17.2653837 6.38459987,15.4302477 10.3942078,17.2591917 C10.5834238,17.3455197 10.8006478,17.3455197 10.9898638,17.2591917 C14.9882397,15.4354317 20.3769356,17.2655277 20.4305036,17.2840317 C20.5073996,17.3108157 20.5870316,17.3239917 20.6663756,17.3239917 C20.8134716,17.3239917 20.9590556,17.2787757 21.0821756,17.1913677 C21.2716076,17.0567277 21.3840716,16.8387837 21.3840716,16.6064397 L21.3840716,3.08447994 C21.3840716,2.68819195 21.0627356,2.36685595 20.6664476,2.36685595 Z M1.43517597,15.6462477 L1.43517597,3.80195992 L2.21651996,3.80195992 L2.21651996,13.3582317 C2.21651996,13.5667437 2.30774395,13.7647437 2.46549595,13.9010397 C2.62324795,14.0373357 2.83305594,14.0984637 3.03926394,14.0680077 C3.07886394,14.0622477 6.19617588,13.6342797 8.47367983,15.1968957 C5.66819989,14.7171597 2.86034394,15.2720637 1.43517597,15.6462477 Z M9.9744478,14.5497597 C8.97134382,13.6434237 7.66475985,13.0305597 6.10790388,12.7473117 C5.35867189,12.6109437 4.66358391,12.5711998 4.10774392,12.5711998 C3.94271992,12.5711998 3.78993592,12.5747278 3.65176793,12.5802718 L3.65176793,1.47405597 L3.65169593,1.47405597 C5.0308559,1.41184797 8.38583983,1.55930397 9.9744478,4.25231992 L9.9744478,14.5497597 Z M11.4095518,4.25239192 C12.9924717,1.57089597 16.3527117,1.41674397 17.7323036,1.47585597 L17.7323036,12.5802718 C17.1287277,12.5559358 16.2476637,12.5704798 15.2760957,12.7473117 C13.7192397,13.0305597 12.4126558,13.6433517 11.4095518,14.5497597 L11.4095518,4.25239192 Z M12.9079437,15.1973277 C15.1857357,13.6337757 18.3047036,14.0621757 18.3435836,14.0679357 C18.5502956,14.0989677 18.7599596,14.0381997 18.9182156,13.9019757 C19.0764716,13.7656077 19.1674796,13.5671757 19.1674796,13.3582317 L19.1674796,3.80203192 L19.9488236,3.80203192 L19.9488236,15.6462477 C18.5232236,15.2719197 15.7142157,14.7167997 12.9079437,15.1973277 Z" id="Shape"></path>
                </g>
            </g>
        </g>
    </g>
</svg>