<?xml version="1.0" encoding="UTF-8"?>
<svg width="15px" height="20px" viewBox="0 0 15 20" version="1.1" xmlns="http://www.w3.org/2000/svg" xmlns:xlink="http://www.w3.org/1999/xlink">
    <!-- Generator: Sketch 64 (93537) - https://sketch.com -->
    <title>pin</title>
    <desc>Created with Sketch.</desc>
    <g id="Symbols" stroke="none" stroke-width="1" fill="none" fill-rule="evenodd">
        <g id="CourseCard_Classroom_air-KnownConsignors" transform="translate(-270.000000, -276.000000)" fill="#15C324" fill-rule="nonzero">
            <g id="pin" transform="translate(270.000000, 276.000000)">
                <path d="M7.06799991,0 C3.18268996,0 0.0217739997,3.16091596 0.0217739997,7.04618791 C0.0217739997,11.8679319 6.32745592,18.9465338 6.59592592,19.2455178 C6.84809391,19.5263758 7.28836191,19.5258818 7.54007391,19.2455178 C7.8085439,18.9465338 14.1142258,11.8679319 14.1142258,7.04618791 C14.1142258,3.16091596 10.9532719,0 7.06799991,0 Z M7.06799991,10.5913219 C5.11320394,10.5913219 3.52290396,9.00098389 3.52290396,7.04618791 C3.52290396,5.09139194 5.11324194,3.50109196 7.06799991,3.50109196 C9.02275789,3.50109196 10.6130579,5.09142994 10.6130579,7.04622591 C10.6130579,9.00102189 9.02275789,10.5913219 7.06799991,10.5913219 Z" id="Shape"></path>
            </g>
        </g>
    </g>
</svg>