<?xml version="1.0" encoding="UTF-8"?>
<svg width="20px" height="20px" viewBox="0 0 20 20" version="1.1" xmlns="http://www.w3.org/2000/svg" xmlns:xlink="http://www.w3.org/1999/xlink">
    <!-- Generator: Sketch 54 (76480) - https://sketchapp.com -->
    <title>pause</title>
    <desc>Created with Sketch.</desc>
    <g id="Delegates-that-are-just-Individuals" stroke="none" stroke-width="1" fill="none" fill-rule="evenodd">
        <g id="07-Individuals---Module-1-inc.-Video" transform="translate(-572.000000, -143.000000)" fill="#0C152E" fill-rule="nonzero">
            <g id="pause" transform="translate(572.000000, 143.000000)">
                <path d="M17.0695057,2.9305193 C13.1624342,-0.976546476 6.83814257,-0.977133046 2.9305236,2.9305193 C-0.976547908,6.83758507 -0.977134479,13.1618675 2.9305236,17.0694807 C6.8375951,20.9765465 13.1618868,20.977133 17.0695057,17.0694807 C20.9765381,13.162454 20.9771247,6.83817164 17.0695057,2.9305193 Z M9.99999511,18.3553599 C5.39283152,18.3553599 1.64460345,14.6071373 1.64460345,9.99998045 C1.64460345,5.39282361 5.39283152,1.64464015 9.99999511,1.64464015 C14.6071587,1.64464015 18.3553477,5.39286271 18.3553477,10.0000196 C18.3553477,14.6071764 14.6071587,18.3553599 9.99999511,18.3553599 Z" id="Shape"></path>
                <path d="M11.8472171,6.25898919 C11.2949314,6.25898919 10.8472171,6.6266512 10.8472171,7.08018704 L10.8472171,12.9198032 C10.8472171,13.373339 11.2949314,13.741001 11.8472171,13.741001 C12.3995028,13.741001 12.8472171,13.373339 12.8472171,12.9198032 L12.8472171,7.08018704 C12.8472171,6.6266512 12.3995505,6.25898919 11.8472171,6.25898919 Z" id="Path"></path>
                <path d="M8.51029919,6.25898919 C7.95801348,6.25898919 7.51029919,6.6266512 7.51029919,7.08018704 L7.51029919,12.9198032 C7.51029919,13.373339 7.95801348,13.741001 8.51029919,13.741001 C9.06258491,13.741001 9.51029919,13.373339 9.51029919,12.9198032 L9.51029919,7.08018704 C9.51029919,6.6266512 9.06263253,6.25898919 8.51029919,6.25898919 Z" id="Path"></path>
            </g>
        </g>
    </g>
</svg>