<?xml version="1.0" encoding="UTF-8"?>
<svg width="19px" height="16px" viewBox="0 0 19 16" version="1.1" xmlns="http://www.w3.org/2000/svg" xmlns:xlink="http://www.w3.org/1999/xlink">
    <!-- Generator: Sketch 54 (76480) - https://sketchapp.com -->
    <title>speaker (1)</title>
    <desc>Created with Sketch.</desc>
    <g id="Delegates-that-are-just-Individuals" stroke="none" stroke-width="1" fill="none" fill-rule="evenodd">
        <g id="07-Individuals---Module-1-inc.-Video" transform="translate(-1351.000000, -145.000000)" fill="#0C152E" fill-rule="nonzero">
            <g id="speaker-(1)" transform="translate(1351.000000, 145.000000)">
                <path d="M8.50414049,0.0351587945 C8.34485613,-0.0326991359 8.15688004,-0.000648452639 8.02969919,0.11676415 L3.51412123,4.26297162 L0.43847387,4.26297162 C0.196115012,4.26297162 0,4.45363722 0,4.68922173 L0,10.6570829 C0,10.8927074 0.196115012,11.083373 0.43847387,11.083373 L3.51412123,11.083373 L8.02974029,15.2295805 C8.11281479,15.3061904 8.22112816,15.3461538 8.3307569,15.3461538 C8.38941465,15.3461538 8.44852456,15.3349241 8.5041816,15.3111858 C8.66519239,15.2441671 8.76923077,15.090148 8.76923077,14.9198638 L8.76923077,0.426480853 C8.76918966,0.256196611 8.66515129,0.102177493 8.50414049,0.0351587945 Z" id="Path"></path>
                <path d="M10.9707957,5.24151834 L10.3612907,5.85969293 C10.2207344,6.00224849 10.1832393,6.23257435 10.3006169,6.39526258 C10.5592324,6.75394944 10.7120598,7.19577 10.7120598,7.67309726 C10.7120598,8.15042452 10.5592324,8.59224507 10.3006169,8.95089127 C10.1832393,9.1135795 10.2207344,9.34394603 10.3612907,9.48650159 L10.9707957,10.1046355 C11.1574688,10.2940046 11.4624018,10.2648427 11.6236505,10.052738 C12.1247206,9.39352527 12.4230769,8.56800453 12.4230769,7.67309726 C12.4230769,6.77814932 12.1247206,5.95262858 11.6236505,5.29341588 C11.4624018,5.0813111 11.1574688,5.05214924 10.9707957,5.24151834 Z" id="Path"></path>
                <path d="M13.6629439,3.05461985 C13.51485,2.88040847 13.2511249,2.8811007 13.0931704,3.04562085 L12.5358059,3.62601778 C12.3864933,3.78146202 12.3878967,4.02578098 12.5258345,4.19214707 C13.3010558,5.12692764 13.7704504,6.34398448 13.7704504,7.67306731 C13.7704504,9.00215014 13.3010558,10.219207 12.5258345,11.1540645 C12.3878598,11.3204306 12.3865303,11.5646726 12.5358059,11.7201168 L13.0931704,12.3005138 C13.2511249,12.4650724 13.51485,12.4657262 13.6630177,12.2915532 C14.7098675,11.0606518 15.3461538,9.4427934 15.3461538,7.67310577 C15.3461538,5.90337968 14.7098675,4.2855213 13.6629439,3.05461985 Z" id="Path"></path>
                <path d="M16.0289238,0.863419441 C15.8570646,0.687352775 15.5594475,0.68786945 15.3801784,0.857139863 L14.7439372,1.45775373 C14.5732989,1.61883685 14.574141,1.87312004 14.7369062,2.04139685 C16.2683984,3.62480451 17.2036459,5.73053004 17.2036459,8.0384739 C17.2036459,10.3464178 16.2683984,12.4521035 14.7369062,14.0355509 C14.5741831,14.2038278 14.5732568,14.4581109 14.7439372,14.6191941 L15.3801784,15.2197682 C15.5594896,15.3890783 15.8571067,15.3895553 16.0289659,15.2134886 C17.8726002,13.324488 19,10.8034359 19,8.0384739 C19,5.2734721 17.8726002,2.75238027 16.0289238,0.863419441 Z" id="Path"></path>
            </g>
        </g>
    </g>
</svg>