<?xml version="1.0" encoding="UTF-8"?>
<svg width="10px" height="15px" viewBox="0 0 10 15" version="1.1" xmlns="http://www.w3.org/2000/svg" xmlns:xlink="http://www.w3.org/1999/xlink">
    <title>CC495E57-D539-4EEE-95C6-992DBEB090D8</title>
    <g id="High-Fidelity-Frontend" stroke="none" stroke-width="1" fill="none" fill-rule="evenodd">
        <g id="TTC-Hub---Course-Category-Page-(Aviation-Security)" transform="translate(-168.000000, -152.000000)" fill="#0E63E8" fill-rule="nonzero">
            <g id="Nav-Arrow" transform="translate(168.500000, 152.500000)">
                <g id="Arrow-Right" transform="translate(4.397500, 7.117500) rotate(-90.000000) translate(-4.397500, -7.117500) translate(-2.102500, 3.117500)">
                    <path d="M0.56093744,2.94624721 L7.26405546,3.8280182 C7.65941935,3.88002689 7.97053566,4.19114321 8.02254436,4.5865071 C8.05992038,4.87063519 7.85988831,5.13126578 7.57576021,5.1686418 C7.53083687,5.17455131 7.485333,5.17455131 7.44040965,5.1686418 L0.737291638,4.28687081 C0.341927742,4.23486212 0.0308114315,3.92374581 -0.0211972624,3.52838191 C-0.0585732878,3.24425382 0.141458786,2.98362324 0.425586879,2.94624721 C0.470510223,2.94033771 0.516014096,2.94033771 0.56093744,2.94624721 Z" id="Rectangle" transform="translate(4.000674, 4.057445) rotate(45.000000) translate(-4.000674, -4.057445) "></path>
                    <path d="M4.76234842,3.01450709 L11.6698171,3.92393406 C12.040038,3.97267679 12.3796156,4.31228408 12.4283161,4.68249944 C12.4770094,5.0526602 12.2164085,5.31326103 11.8462478,5.26456772 C11.8462223,5.26456437 11.8461968,5.26456101 11.8461713,5.26455766 L4.93870262,4.35513069 C4.56848171,4.30638797 4.22890415,3.96678066 4.18020366,3.59656531 C4.13151035,3.22640457 4.39211121,2.96580372 4.76227197,3.01449703 C4.76229744,3.01450038 4.76232295,3.01450374 4.76234842,3.01450709 Z" id="Rectangle" transform="translate(8.304260, 4.139532) scale(-1, 1) rotate(45.000000) translate(-8.304260, -4.139532) "></path>
                </g>
            </g>
        </g>
    </g>
</svg>